<svg xmlns="http://www.w3.org/2000/svg" width="225" height="225" viewBox="0 0 225 225">
<g>
<path d="M 0.00,225.00 L 0.00,0.00 L 0.49,0.00 M 225.00,225.00 L 0.00,225.00 L 112.75,224.75 L 225.00,224.51 M 225.00,224.51 L 113.25,224.25 L 1.01,223.99 L 0.75,111.75 L 0.49,0.00 L 225.00,0.00 M 58.67,60.75 L 60.75,63.78 L 62.39,66.16 L 63.32,67.51 L 65.23,70.28 L 66.26,71.79 L 68.38,74.86 L 69.49,76.47 L 74.05,83.10 L 76.38,86.48 L 81.02,93.22 L 83.19,96.37 L 85.59,99.86 L 87.07,102.01 L 87.74,103.00 L 89.05,104.92 L 89.64,105.80 L 90.79,107.51 L 91.31,108.28 L 93.25,111.20 L 94.01,112.38 L 95.40,114.59 L 95.92,115.47 L 96.85,117.08 L 97.15,117.70 L 97.67,118.83 L 97.80,119.25 L 97.97,120.00 L 97.96,120.27 L 97.85,120.76 L 97.72,120.94 L 97.01,121.83 L 96.09,122.93 L 95.43,123.71 L 93.99,125.42 L 93.10,126.47 L 91.20,128.71 L 90.10,130.00 L 87.81,132.68 L 86.55,134.16 L 83.93,137.21 L 82.53,138.85 L 79.66,142.20 L 78.15,143.96 L 75.08,147.52 L 73.50,149.36 L 68.87,154.74 L 65.93,158.18 L 64.54,159.81 L 61.84,162.97 L 60.61,164.43 L 58.22,167.25 L 57.16,168.51 L 55.14,170.90 L 54.29,171.92 L 52.71,173.81 L 52.11,174.55 L 51.03,175.87 L 50.70,176.29 L 50.19,176.97 L 50.17,177.03 L 50.21,177.29 L 50.40,177.41 L 50.89,177.63 L 51.27,177.72 L 52.12,177.87 L 52.65,177.92 L 53.77,178.00 L 54.40,178.00 L 56.36,177.95 L 57.52,177.80 L 58.11,177.59 L 59.31,177.05 L 60.01,176.57 L 61.48,175.43 L 62.40,174.56 L 63.35,173.64 L 63.89,173.09 L 65.01,171.92 L 65.64,171.24 L 66.96,169.80 L 67.70,168.98 L 69.23,167.25 L 70.09,166.26 L 71.88,164.20 L 72.88,163.04 L 74.95,160.64 L 76.10,159.29 L 78.48,156.50 L 79.80,154.96 L 82.52,151.76 L 84.02,150.00 L 87.88,145.48 L 90.34,142.60 L 91.51,141.25 L 93.78,138.61 L 94.82,137.41 L 96.84,135.08 L 97.74,134.05 L 99.46,132.09 L 100.18,131.26 L 101.54,129.73 L 102.06,129.15 L 103.01,128.11 L 103.31,127.79 L 103.79,127.31 L 103.83,127.29 L 104.32,127.76 L 104.96,128.56 L 105.43,129.18 L 106.47,130.56 L 107.12,131.44 L 108.50,133.34 L 109.30,134.46 L 110.97,136.80 L 111.90,138.12 L 113.81,140.85 L 114.85,142.33 L 116.96,145.37 L 118.07,146.98 L 120.33,150.27 L 121.50,151.98 L 125.20,157.35 L 127.52,160.68 L 128.61,162.21 L 130.72,165.18 L 131.68,166.51 L 133.55,169.07 L 134.38,170.18 L 135.97,172.29 L 136.65,173.17 L 137.94,174.79 L 138.46,175.41 L 139.42,176.51 L 139.76,176.85 L 140.35,177.38 L 140.50,177.42 L 141.39,177.57 L 142.28,177.65 L 142.85,177.69 L 144.08,177.76 L 144.80,177.79 L 146.31,177.85 L 147.16,177.87 L 150.73,177.95 L 152.72,177.96 L 156.80,177.98 L 158.87,177.97 L 162.98,177.94 L 164.89,177.90 L 168.57,177.82 L 170.10,177.76 L 171.56,177.69 L 172.18,177.66 L 173.35,177.58 L 173.81,177.54 L 174.63,177.45 L 174.88,177.40 L 175.29,177.30 L 175.33,177.25 L 175.24,176.99 L 175.06,176.64 L 174.92,176.37 L 174.16,175.10 L 173.57,174.16 L 172.24,172.07 L 171.38,170.75 L 169.54,167.93 L 168.45,166.29 L 166.17,162.86 L 164.88,160.94 L 162.22,156.98 L 160.77,154.84 L 157.79,150.46 L 156.21,148.15 L 152.99,143.44 L 151.30,141.00 L 146.37,133.83 L 143.22,129.25 L 141.73,127.09 L 138.83,122.85 L 137.49,120.90 L 134.91,117.13 L 133.76,115.44 L 131.56,112.22 L 130.63,110.85 L 128.89,108.29 L 128.22,107.29 L 127.00,105.48 L 126.61,104.90 L 126.27,104.37 L 126.15,104.20 L 125.96,103.90 L 125.93,103.84 L 125.92,103.12 L 126.20,102.39 L 126.50,101.86 L 127.20,100.70 L 127.74,99.94 L 128.95,98.28 L 129.76,97.23 L 131.53,94.99 L 132.65,93.62 L 135.04,90.71 L 136.49,88.97 L 137.99,87.19 L 138.81,86.22 L 140.49,84.24 L 141.40,83.17 L 143.27,80.98 L 144.27,79.80 L 146.34,77.39 L 147.45,76.10 L 151.97,70.84 L 154.85,67.48 L 156.21,65.89 L 158.86,62.79 L 160.07,61.37 L 162.43,58.61 L 163.47,57.38 L 165.47,55.03 L 166.31,54.04 L 167.88,52.18 L 168.49,51.45 L 169.57,50.15 L 169.91,49.74 L 170.45,49.07 L 170.50,49.01 L 170.39,48.59 L 169.94,48.36 L 169.54,48.27 L 168.62,48.12 L 167.99,48.08 L 166.64,48.01 L 165.81,48.01 L 160.50,48.02 L 140.50,71.44 L 136.47,76.15 L 133.90,79.14 L 132.69,80.54 L 130.33,83.28 L 129.25,84.52 L 127.16,86.94 L 126.23,88.00 L 124.45,90.03 L 123.71,90.87 L 122.31,92.45 L 121.77,93.05 L 120.81,94.11 L 120.51,94.42 L 120.03,94.91 L 120.00,94.91 L 119.57,94.44 L 118.98,93.67 L 118.54,93.08 L 117.58,91.76 L 116.98,90.92 L 115.69,89.12 L 114.95,88.06 L 113.38,85.83 L 112.52,84.59 L 110.72,82.01 L 109.75,80.61 L 107.77,77.74 L 106.72,76.22 L 104.60,73.12 L 103.50,71.51 L 87.50,48.07 L 68.70,48.03 L 49.90,48.00 M 80.05,57.21 L 80.78,57.29 L 82.10,57.49 L 82.56,57.64 L 83.35,57.98 L 83.57,58.20 L 84.08,58.83 L 84.61,59.53 L 84.97,60.02 L 85.74,61.07 L 86.20,61.72 L 87.19,63.11 L 87.77,63.92 L 88.96,65.61 L 89.63,66.56 L 91.01,68.53 L 91.76,69.61 L 93.31,71.83 L 94.14,73.03 L 95.84,75.48 L 96.74,76.78 L 100.48,82.18 L 102.50,85.13 L 106.66,91.17 L 108.84,94.36 L 113.27,100.83 L 115.55,104.16 L 120.12,110.87 L 122.42,114.23 L 127.00,120.97 L 129.24,124.27 L 133.69,130.83 L 135.81,133.98 L 139.99,140.16 L 141.93,143.04 L 145.69,148.65 L 147.38,151.16 L 149.02,153.63 L 149.79,154.78 L 151.28,157.01 L 151.95,158.04 L 153.27,160.02 L 153.85,160.91 L 154.97,162.62 L 155.46,163.36 L 156.37,164.77 L 156.74,165.35 L 157.43,166.43 L 157.68,166.84 L 158.12,167.56 L 158.24,167.78 L 158.42,168.13 L 158.41,168.15 L 158.07,168.38 L 157.67,168.48 L 156.70,168.67 L 156.04,168.75 L 154.61,168.89 L 153.77,168.93 L 152.03,169.00 L 151.10,169.00 L 147.77,168.92 L 146.06,168.76 L 145.42,168.63 L 144.26,168.32 L 143.83,168.09 L 143.05,167.59 L 142.75,167.25 L 142.40,166.79 L 141.98,166.21 L 141.68,165.80 L 141.02,164.88 L 140.61,164.29 L 139.73,163.05 L 139.22,162.31 L 138.13,160.76 L 137.51,159.88 L 136.23,158.04 L 135.52,157.02 L 134.05,154.91 L 133.25,153.77 L 131.62,151.41 L 130.74,150.15 L 127.08,144.87 L 125.05,141.94 L 120.85,135.88 L 118.59,132.61 L 113.98,125.91 L 111.54,122.38 L 106.60,115.21 L 104.05,111.50 L 66.91,57.50 L 74.62,57.20 L 78.16,57.15 Z" fill="rgb(0,0,0)"/>
<path d="M 0.75,111.75 L 1.01,223.99 L 113.25,224.25 L 225.50,224.51 L 112.75,224.75 L 0.00,225.00 L 0.49,-0.50 Z" fill="rgb(12,12,12)"/>
<path d="M 50.17,177.03 L 50.19,176.97 L 50.70,176.29 L 51.03,175.87 L 52.11,174.55 L 52.71,173.81 L 54.29,171.92 L 55.14,170.90 L 57.16,168.51 L 58.22,167.25 L 60.61,164.43 L 61.84,162.97 L 64.54,159.81 L 65.93,158.18 L 68.87,154.74 L 73.50,149.36 L 75.08,147.52 L 78.15,143.96 L 79.66,142.20 L 82.53,138.85 L 83.93,137.21 L 86.55,134.16 L 87.81,132.68 L 90.10,130.00 L 91.20,128.71 L 93.10,126.47 L 93.99,125.42 L 95.43,123.71 L 96.09,122.93 L 97.01,121.83 L 97.72,120.94 L 97.85,120.76 L 97.96,120.27 L 97.97,120.00 L 97.80,119.25 L 97.67,118.83 L 97.15,117.70 L 96.85,117.08 L 95.92,115.47 L 95.40,114.59 L 94.01,112.38 L 93.25,111.20 L 91.31,108.28 L 90.79,107.51 L 89.64,105.80 L 89.05,104.92 L 87.74,103.00 L 87.07,102.01 L 85.59,99.86 L 83.19,96.37 L 81.02,93.22 L 76.38,86.48 L 74.05,83.10 L 69.49,76.47 L 68.38,74.86 L 66.26,71.79 L 65.23,70.28 L 63.32,67.51 L 62.39,66.16 L 60.75,63.78 L 58.67,60.75 L 49.90,48.00 L 68.70,48.03 L 87.50,48.07 L 103.50,71.51 L 104.60,73.12 L 106.72,76.22 L 107.77,77.74 L 109.75,80.61 L 110.72,82.01 L 112.52,84.59 L 113.38,85.83 L 114.95,88.06 L 115.69,89.12 L 116.98,90.92 L 117.58,91.76 L 118.54,93.08 L 118.98,93.67 L 119.57,94.44 L 120.00,94.91 L 120.03,94.91 L 120.51,94.42 L 120.81,94.11 L 121.77,93.05 L 122.31,92.45 L 123.71,90.87 L 124.45,90.03 L 126.23,88.00 L 127.16,86.94 L 129.25,84.52 L 130.33,83.28 L 132.69,80.54 L 133.90,79.14 L 136.47,76.15 L 140.50,71.44 L 160.50,48.02 L 165.81,48.01 L 166.64,48.01 L 167.99,48.08 L 168.62,48.12 L 169.54,48.27 L 169.94,48.36 L 170.39,48.59 L 170.50,49.01 L 170.45,49.07 L 169.91,49.74 L 169.57,50.15 L 168.49,51.45 L 167.88,52.18 L 166.31,54.04 L 165.47,55.03 L 163.47,57.38 L 162.43,58.61 L 160.07,61.37 L 158.86,62.79 L 156.21,65.89 L 154.85,67.48 L 151.97,70.84 L 147.45,76.10 L 146.34,77.39 L 144.27,79.80 L 143.27,80.98 L 141.40,83.17 L 140.49,84.24 L 138.81,86.22 L 137.99,87.19 L 136.49,88.97 L 135.04,90.71 L 132.65,93.62 L 131.53,94.99 L 129.76,97.23 L 128.95,98.28 L 127.74,99.94 L 127.20,100.70 L 126.50,101.86 L 126.20,102.39 L 125.92,103.12 L 125.93,103.84 L 125.96,103.90 L 126.15,104.20 L 126.27,104.37 L 126.61,104.90 L 127.00,105.48 L 128.22,107.29 L 128.89,108.29 L 130.63,110.85 L 131.56,112.22 L 133.76,115.44 L 134.91,117.13 L 137.49,120.90 L 138.83,122.85 L 141.73,127.09 L 143.22,129.25 L 146.37,133.83 L 151.30,141.00 L 152.99,143.44 L 156.21,148.15 L 157.79,150.46 L 160.77,154.84 L 162.22,156.98 L 164.88,160.94 L 166.17,162.86 L 168.45,166.29 L 169.54,167.93 L 171.38,170.75 L 172.24,172.07 L 173.57,174.16 L 174.16,175.10 L 174.92,176.37 L 175.06,176.64 L 175.24,176.99 L 175.33,177.25 L 175.29,177.30 L 174.88,177.40 L 174.63,177.45 L 173.81,177.54 L 173.35,177.58 L 172.18,177.66 L 171.56,177.69 L 170.10,177.76 L 168.57,177.82 L 164.89,177.90 L 162.98,177.94 L 158.87,177.97 L 156.80,177.98 L 152.72,177.96 L 150.73,177.95 L 147.16,177.87 L 146.31,177.85 L 144.80,177.79 L 144.08,177.76 L 142.85,177.69 L 142.28,177.65 L 141.39,177.57 L 140.50,177.42 L 140.35,177.38 L 139.76,176.85 L 139.42,176.51 L 138.46,175.41 L 137.94,174.79 L 136.65,173.17 L 135.97,172.29 L 134.38,170.18 L 133.55,169.07 L 131.68,166.51 L 130.72,165.18 L 128.61,162.21 L 127.52,160.68 L 125.20,157.35 L 121.50,151.98 L 120.33,150.27 L 118.07,146.98 L 116.96,145.37 L 114.85,142.33 L 113.81,140.85 L 111.90,138.12 L 110.97,136.80 L 109.30,134.46 L 108.50,133.34 L 107.12,131.44 L 106.47,130.56 L 105.43,129.18 L 104.96,128.56 L 104.32,127.76 L 103.83,127.29 L 103.79,127.31 L 103.31,127.79 L 103.01,128.11 L 102.06,129.15 L 101.54,129.73 L 100.18,131.26 L 99.46,132.09 L 97.74,134.05 L 96.84,135.08 L 94.82,137.41 L 93.78,138.61 L 91.51,141.25 L 90.34,142.60 L 87.88,145.48 L 84.02,150.00 L 82.52,151.76 L 79.80,154.96 L 78.48,156.50 L 76.10,159.29 L 74.95,160.64 L 72.88,163.04 L 71.88,164.20 L 70.09,166.26 L 69.23,167.25 L 67.70,168.98 L 66.96,169.80 L 65.64,171.24 L 65.01,171.92 L 63.89,173.09 L 63.35,173.64 L 62.40,174.56 L 61.48,175.43 L 60.01,176.57 L 59.31,177.05 L 58.11,177.59 L 57.52,177.80 L 56.36,177.95 L 54.40,178.00 L 53.77,178.00 L 52.65,177.92 L 52.12,177.87 L 51.27,177.72 L 50.89,177.63 L 50.40,177.41 L 50.21,177.29 M 158.41,168.15 L 158.42,168.13 L 158.24,167.78 L 158.12,167.56 L 157.68,166.84 L 157.43,166.43 L 156.74,165.35 L 156.37,164.77 L 155.46,163.36 L 154.97,162.62 L 153.85,160.91 L 153.27,160.02 L 151.95,158.04 L 151.28,157.01 L 149.79,154.78 L 149.02,153.63 L 147.38,151.16 L 145.69,148.65 L 141.93,143.04 L 139.99,140.16 L 135.81,133.98 L 133.69,130.83 L 129.24,124.27 L 127.00,120.97 L 122.42,114.23 L 120.12,110.87 L 115.55,104.16 L 113.27,100.83 L 108.84,94.36 L 106.66,91.17 L 102.50,85.13 L 100.48,82.18 L 96.74,76.78 L 95.84,75.48 L 94.14,73.03 L 93.31,71.83 L 91.76,69.61 L 91.01,68.53 L 89.63,66.56 L 88.96,65.61 L 87.77,63.92 L 87.19,63.11 L 86.20,61.72 L 85.74,61.07 L 84.97,60.02 L 84.61,59.53 L 84.08,58.83 L 83.57,58.20 L 83.35,57.98 L 82.56,57.64 L 82.10,57.49 L 80.78,57.29 L 80.05,57.21 L 78.16,57.15 L 74.62,57.20 L 66.91,57.50 L 104.05,111.50 L 106.60,115.21 L 111.54,122.38 L 113.98,125.91 L 118.59,132.61 L 120.85,135.88 L 125.05,141.94 L 127.08,144.87 L 130.74,150.15 L 131.62,151.41 L 133.25,153.77 L 134.05,154.91 L 135.52,157.02 L 136.23,158.04 L 137.51,159.88 L 138.13,160.76 L 139.22,162.31 L 139.73,163.05 L 140.61,164.29 L 141.02,164.88 L 141.68,165.80 L 141.98,166.21 L 142.40,166.79 L 142.75,167.25 L 143.05,167.59 L 143.83,168.09 L 144.26,168.32 L 145.42,168.63 L 146.06,168.76 L 147.77,168.92 L 151.10,169.00 L 152.03,169.00 L 153.77,168.93 L 154.61,168.89 L 156.04,168.75 L 156.70,168.67 L 157.67,168.48 L 158.07,168.38 Z" fill="rgb(254,254,254)"/>
</g>
</svg>