<svg xmlns="http://www.w3.org/2000/svg" width="1024" height="1024" viewBox="0 0 1024 1024">
<g>
<path d="M 414.47,629.81 L 413.85,629.29 L 411.47,627.27 L 411.05,626.88 M 495.20,430.67 L 495.81,430.74 L 498.45,431.18 L 499.75,431.56 L 503.91,432.69 L 505.24,433.03 L 505.81,433.16 L 506.87,433.41 L 507.25,433.49 L 509.19,434.29 L 509.64,434.66 L 509.78,434.86 L 510.00,435.26 L 510.00,435.45 L 509.79,436.04 L 509.45,436.40 L 509.21,436.55 L 508.03,437.09 L 507.25,437.18 L 505.19,437.97 L 504.35,438.90 L 504.23,439.49 L 504.17,440.75 L 504.45,441.43 L 505.21,442.79 L 505.92,443.43 L 507.94,444.69 L 509.08,444.86 L 509.51,444.64 L 510.24,444.00 L 510.40,443.41 L 510.56,442.04 L 510.37,441.11 L 509.78,438.14 L 520.53,438.48 L 525.44,438.71 L 527.99,438.92 L 528.93,439.06 L 530.58,439.35 L 531.11,439.53 L 531.95,439.92 L 532.10,440.16 L 532.48,441.54 L 532.11,442.25 L 531.60,442.50 L 530.36,442.93 L 529.40,443.05 L 527.26,443.22 L 525.83,443.22 L 521.98,443.44 L 520.11,443.82 L 519.53,444.11 L 518.63,444.76 L 518.55,445.18 L 518.54,445.62 L 518.64,445.86 L 518.89,446.36 L 519.11,446.63 L 520.26,447.60 L 521.11,448.00 L 521.44,448.00 L 522.66,448.22 L 523.71,448.57 L 524.31,448.82 L 526.88,449.99 L 528.17,450.72 L 530.66,452.21 L 531.55,452.89 L 532.35,453.54 L 532.61,453.81 L 533.00,454.32 L 533.00,454.50 L 532.78,455.37 L 532.43,455.80 L 532.15,455.94 L 531.54,456.16 L 531.14,456.19 L 530.28,456.20 L 529.77,456.12 L 528.79,456.14 L 527.87,456.25 L 527.33,456.35 L 524.94,456.85 L 523.71,457.18 L 521.30,457.87 L 520.43,458.20 L 519.64,458.52 L 519.39,458.66 L 519.00,458.92 L 519.00,459.01 L 519.23,459.68 L 519.61,460.19 L 519.89,460.47 L 521.23,461.64 L 522.14,462.23 L 524.10,463.40 L 525.17,463.89 L 527.35,464.81 L 528.38,465.08 L 530.32,465.70 L 531.79,466.25 L 532.56,466.58 L 535.62,467.97 L 536.81,468.66 L 538.21,469.46 L 538.99,469.89 L 539.31,470.05 L 540.45,470.54 L 540.89,470.58 L 541.71,470.53 L 542.14,470.32 L 543.06,469.77 L 543.69,469.33 L 545.57,468.03 L 546.67,467.32 L 547.19,467.04 L 549.19,466.10 L 550.33,465.86 L 551.52,465.65 L 552.22,465.60 L 553.67,465.51 L 554.54,465.50 L 556.38,465.50 L 557.48,465.52 L 559.82,465.59 L 561.21,465.64 L 564.57,465.78 L 566.46,465.88 L 567.24,465.94 L 568.72,466.06 L 569.33,466.13 L 570.48,466.29 L 570.96,466.39 L 572.65,466.84 L 573.31,467.18 L 574.55,467.97 L 575.21,468.53 L 577.93,470.28 L 578.84,470.69 L 579.25,470.81 L 580.03,471.01 L 580.33,471.02 L 582.31,471.24 L 583.40,471.69 L 583.92,472.15 L 584.98,473.24 L 585.59,474.11 L 586.22,475.04 L 586.58,475.60 L 587.32,476.80 L 587.75,477.50 L 590.52,482.95 L 591.75,486.49 L 592.07,488.36 L 592.54,492.19 L 592.52,494.36 L 592.46,496.57 L 592.36,497.77 L 592.14,500.22 L 591.97,501.55 L 591.73,503.78 L 591.58,505.62 L 591.51,506.69 L 591.36,508.93 L 591.29,510.16 L 591.15,512.71 L 591.09,514.07 L 590.85,519.73 L 590.76,522.71 L 590.60,528.71 L 590.56,531.61 L 590.41,539.89 L 590.34,542.41 L 590.30,543.57 L 590.23,545.82 L 590.19,546.82 L 590.10,548.74 L 590.06,549.55 L 589.97,551.08 L 589.93,551.67 L 589.84,552.75 L 589.80,553.10 L 589.71,553.66 L 589.67,553.73 L 589.06,554.16 L 588.35,554.45 L 587.87,554.59 L 585.69,555.11 L 584.42,555.26 L 581.11,555.95 L 579.31,556.65 L 578.67,557.09 L 577.58,558.00 L 577.37,558.49 L 577.18,559.48 L 577.48,559.96 L 578.78,560.63 L 580.18,560.68 L 581.04,560.49 L 583.94,560.51 L 584.88,560.84 L 585.38,561.10 L 586.39,561.71 L 586.95,562.12 L 589.07,564.26 L 589.85,565.76 L 589.92,566.50 L 589.85,567.96 L 589.49,568.63 L 588.55,569.91 L 587.75,570.43 L 586.73,571.28 L 585.99,572.04 L 585.61,572.49 L 584.15,574.43 L 583.63,575.38 L 581.67,578.03 L 580.06,579.38 L 579.15,579.82 L 577.27,580.57 L 576.27,580.69 L 574.22,580.77 L 573.17,580.54 L 571.57,580.29 L 570.79,580.35 L 570.49,580.51 L 569.94,580.95 L 569.68,581.34 L 569.17,582.25 L 568.88,582.91 L 568.07,584.24 L 567.32,585.13 L 566.85,585.57 L 564.73,587.30 L 563.36,588.10 L 560.45,589.64 L 558.79,590.28 L 555.34,591.48 L 553.50,591.91 L 552.87,592.03 L 552.46,592.09 L 551.56,592.20 L 551.02,592.25 L 548.66,592.43 L 547.24,592.50 L 544.25,592.63 L 542.63,592.68 L 539.34,592.75 L 537.69,592.76 L 534.42,592.77 L 532.91,592.75 L 530.00,592.70 L 528.79,592.64 L 526.56,592.52 L 525.81,592.44 L 525.13,592.35 L 524.90,592.29 L 524.52,592.19 L 524.46,592.13 L 523.82,591.92 L 522.95,591.74 L 522.35,591.64 L 521.04,591.43 L 520.26,591.32 L 518.66,591.11 L 517.79,591.00 L 515.04,590.50 L 512.89,589.96 L 511.70,589.61 L 506.74,588.02 L 504.24,587.07 L 501.76,586.09 L 500.60,585.60 L 498.34,584.60 L 497.35,584.12 L 495.48,583.17 L 494.75,582.73 L 493.43,581.89 L 493.03,581.52 L 491.64,580.80 L 490.18,580.34 L 489.19,580.13 L 487.05,579.71 L 485.75,579.52 L 483.00,579.16 L 481.41,579.00 L 473.35,578.13 L 471.00,577.85 L 470.07,577.72 L 468.38,577.49 L 467.88,577.40 L 465.05,577.25 L 464.36,577.36 L 464.11,577.47 L 463.67,577.72 L 463.57,577.89 L 462.40,578.71 L 461.25,578.97 L 460.61,578.96 L 459.30,578.85 L 458.71,578.66 L 457.58,578.18 L 457.21,577.81 L 456.36,577.33 L 455.49,577.05 L 454.94,576.93 L 452.51,576.53 L 451.18,576.50 L 446.85,575.89 L 444.36,575.01 L 443.43,574.37 L 441.76,573.44 L 440.26,572.76 L 439.39,572.42 L 435.63,571.06 L 433.78,570.57 L 431.71,570.03 L 430.56,569.75 L 430.09,569.65 L 428.42,569.33 L 427.86,569.32 L 426.88,569.40 L 426.51,569.58 L 425.83,570.03 L 425.46,570.40 L 424.06,571.53 L 423.18,572.00 L 422.93,572.00 L 422.27,572.25 L 422.00,572.61 L 422.00,572.84 L 422.41,573.18 L 423.07,573.39 L 423.54,573.49 L 424.58,573.66 L 425.21,573.72 L 426.53,573.83 L 427.25,573.86 L 431.60,574.24 L 434.22,574.70 L 435.30,575.01 L 437.30,575.67 L 437.98,576.06 L 438.61,576.46 L 438.83,576.66 L 439.20,577.08 L 439.28,577.30 L 438.89,577.86 L 438.47,578.01 L 438.16,578.07 L 437.48,578.19 L 437.03,578.23 L 436.07,578.32 L 435.47,578.36 L 434.21,578.42 L 433.46,578.44 L 431.87,578.47 L 430.95,578.49 L 429.02,578.50 L 427.92,578.50 L 424.41,578.49 L 422.45,578.47 L 421.65,578.44 L 420.15,578.39 L 419.55,578.35 L 418.44,578.26 L 418.01,578.20 L 417.23,578.07 L 416.95,577.98 L 416.44,577.79 L 416.26,577.67 L 415.74,577.12 L 415.64,576.73 L 415.69,575.11 L 416.11,574.03 L 416.47,573.68 L 417.06,572.95 L 417.25,572.51 L 417.24,572.27 L 417.16,571.79 L 417.01,571.50 L 416.66,570.89 L 416.38,570.50 L 415.39,568.63 L 415.05,567.38 L 415.05,566.81 L 415.16,565.73 L 415.37,565.31 L 415.92,564.58 L 416.36,564.42 L 417.16,564.38 L 417.91,564.52 L 418.36,564.67 L 420.29,565.42 L 421.27,566.00 L 422.89,566.86 L 423.78,567.23 L 424.13,567.31 L 424.76,567.41 L 424.99,567.35 L 425.39,567.17 L 425.51,566.98 L 425.56,565.72 L 425.33,565.16 L 425.13,564.84 L 424.68,564.16 L 424.37,563.76 L 423.68,562.93 L 423.25,562.45 L 422.32,561.45 L 421.75,560.89 L 420.56,559.70 L 419.86,559.04 L 418.38,557.65 L 417.54,556.87 L 412.50,552.24 L 412.00,523.37 L 411.93,519.07 L 411.89,516.40 L 411.87,515.17 L 411.82,510.50 L 411.80,508.52 L 411.79,504.78 L 411.80,503.21 L 411.84,500.27 L 411.88,499.06 L 411.96,496.78 L 412.03,495.85 L 412.17,494.12 L 412.26,493.41 L 412.47,492.08 L 412.59,491.52 L 412.86,490.47 L 413.01,490.00 L 413.78,487.79 L 414.24,486.58 L 414.45,486.10 L 414.88,485.20 L 415.09,484.85 L 415.54,484.22 L 415.78,483.99 L 416.83,483.27 L 417.56,483.14 L 419.18,483.01 L 420.33,483.04 L 422.32,483.03 L 423.85,482.97 L 424.66,482.91 L 427.92,482.64 L 429.21,482.45 L 431.76,481.97 L 432.93,481.59 L 433.33,481.32 L 434.03,480.68 L 434.30,480.22 L 434.78,479.17 L 435.03,478.42 L 435.48,476.76 L 435.62,475.80 L 435.62,475.37 L 435.41,473.76 L 434.99,472.99 L 434.37,471.07 L 434.55,470.04 L 434.92,469.59 L 436.27,468.50 L 437.63,467.70 L 438.50,467.28 L 440.36,466.43 L 441.43,466.00 L 443.66,465.14 L 444.86,464.73 L 449.88,463.11 L 452.43,462.47 L 454.96,461.86 L 456.16,461.62 L 458.53,461.19 L 459.61,461.05 L 461.99,460.73 L 463.33,460.52 L 463.88,460.41 L 464.92,460.19 L 465.34,460.07 L 466.11,459.83 L 466.40,459.70 L 467.32,459.15 L 467.47,458.80 L 467.57,458.05 L 467.39,457.57 L 467.38,456.38 L 467.76,455.65 L 468.10,455.44 L 468.89,455.23 L 468.96,455.67 L 468.76,456.18 L 468.62,457.65 L 468.83,458.70 L 469.08,459.09 L 469.51,459.66 L 469.71,459.80 L 469.78,459.74 L 469.90,459.54 L 469.93,459.30 L 469.98,458.75 L 469.98,458.33 L 470.26,456.82 L 470.72,456.12 L 471.09,455.91 L 471.95,455.60 L 472.54,455.58 L 473.83,455.63 L 474.65,455.78 L 476.53,456.53 L 477.26,457.26 L 477.35,457.68 L 477.34,458.56 L 477.05,459.00 L 476.27,459.87 L 475.58,460.24 L 474.45,460.96 L 473.98,461.43 L 473.87,461.69 L 473.73,462.24 L 473.77,462.58 L 473.92,463.30 L 474.09,463.75 L 474.67,464.86 L 475.18,465.38 L 475.52,465.54 L 476.29,465.82 L 476.82,465.88 L 477.96,465.97 L 478.72,465.97 L 481.96,465.51 L 482.96,465.22 L 483.39,465.04 L 484.17,464.67 L 484.44,464.47 L 486.73,463.38 L 488.49,463.04 L 489.37,463.05 L 491.08,463.21 L 491.80,463.47 L 493.10,464.12 L 493.47,464.63 L 494.16,465.40 L 494.61,465.68 L 494.86,465.72 L 495.39,465.71 L 495.72,465.60 L 496.43,465.31 L 496.89,465.06 L 499.29,464.40 L 501.16,464.31 L 501.93,464.48 L 504.80,464.40 L 506.93,463.80 L 507.93,463.31 L 509.84,462.24 L 510.53,461.61 L 511.17,460.97 L 511.39,460.64 L 511.76,459.99 L 511.82,459.67 L 511.36,458.23 L 510.36,457.39 L 509.57,457.06 L 507.80,456.47 L 506.70,456.28 L 504.35,456.00 L 503.02,456.00 L 500.93,455.84 L 499.72,455.53 L 499.14,455.24 L 497.97,454.58 L 497.32,454.07 L 495.99,452.95 L 495.18,452.18 L 493.93,450.95 L 493.25,450.26 L 492.98,449.95 L 492.10,448.83 L 491.89,448.30 L 491.60,447.25 L 491.63,446.60 L 491.78,445.18 L 491.96,444.19 L 492.86,440.82 L 493.23,439.85 L 493.41,439.46 L 493.78,438.76 L 493.95,438.56 L 494.60,437.29 L 494.66,436.49 L 494.52,436.15 L 494.12,435.52 L 493.77,435.32 L 492.97,435.00 L 492.44,435.00 L 491.28,434.41 L 490.98,433.58 L 491.04,433.08 L 491.31,432.06 L 491.64,431.63 L 492.43,430.86 L 493.00,430.71 L 494.16,430.61 M 494.17,586.14 L 494.83,586.43 L 495.22,586.82 L 495.89,587.63 L 495.90,588.00 L 495.68,588.72 L 495.23,589.17 L 494.64,589.64 L 494.32,589.76 L 494.17,589.72 L 493.91,589.57 L 493.78,589.38 L 493.53,588.95 L 493.41,588.62 L 493.12,587.20 L 493.24,586.50 L 493.42,586.32 L 493.86,586.07 M 377.58,585.29 L 379.88,589.32 L 379.10,588.01 L 377.62,585.47 L 376.15,582.65 M 363.04,547.60 L 366.98,560.90 L 370.05,569.38 L 371.82,573.45 L 375.33,581.08 L 374.90,580.27 L 373.59,577.65 L 371.18,572.31 L 370.02,569.62 L 367.94,564.15 L 366.94,561.40 L 365.18,555.79 L 364.34,552.98 L 362.91,547.25 L 362.47,545.37 M 567.49,561.74 L 566.71,562.15 L 565.52,562.83 L 565.11,563.14 L 565.10,563.26 L 565.20,563.49 L 565.44,563.61 L 566.04,563.87 L 566.52,564.04 L 567.62,564.33 L 568.09,564.32 L 568.96,564.18 L 569.26,563.99 L 569.76,563.52 L 569.82,563.20 L 569.80,562.49 L 569.55,562.08 L 568.53,561.52 M 425.01,503.00 L 423.54,503.49 L 422.73,504.31 L 422.39,504.97 L 421.78,506.45 L 421.56,507.45 L 421.15,509.63 L 421.02,510.98 L 420.82,513.85 L 420.80,515.56 L 420.80,519.15 L 420.87,521.22 L 421.08,525.54 L 421.25,527.98 L 421.66,533.04 L 421.93,535.86 L 422.70,542.22 L 423.32,545.88 L 423.71,547.45 L 424.53,550.42 L 425.03,551.68 L 426.11,554.06 L 426.77,555.05 L 428.16,556.92 L 429.00,557.69 L 430.76,559.13 L 431.80,559.72 L 434.00,560.82 L 435.28,561.28 L 437.96,562.13 L 439.50,562.49 L 444.37,563.41 L 446.91,563.62 L 451.98,563.87 L 454.21,563.77 L 456.38,563.63 L 457.32,563.51 L 459.09,563.23 L 459.78,563.03 L 461.03,562.61 L 461.41,562.35 L 462.00,561.80 L 462.00,561.48 L 461.64,560.23 L 461.01,559.56 L 460.47,559.28 L 459.21,558.75 L 458.31,558.53 L 456.31,558.10 L 455.00,557.90 L 450.90,557.17 L 448.42,556.59 L 447.28,556.24 L 445.09,555.52 L 444.09,555.10 L 442.16,554.22 L 441.28,553.72 L 439.58,552.66 L 438.80,552.06 L 437.29,550.80 L 436.60,550.10 L 435.25,548.63 L 434.63,547.80 L 433.41,546.10 L 432.84,545.15 L 430.40,540.54 L 429.41,537.89 L 429.22,536.73 L 429.05,534.52 L 429.27,533.51 L 429.89,531.57 L 430.49,530.65 L 431.22,529.08 L 431.49,527.77 L 431.51,526.83 L 431.52,525.83 L 431.49,525.23 L 431.43,523.95 L 431.37,523.19 L 431.24,521.57 L 431.14,520.62 L 430.94,518.61 L 430.82,517.44 L 430.36,513.63 L 430.05,511.43 L 429.87,510.50 L 429.52,508.73 L 429.33,507.99 L 428.93,506.61 L 428.70,506.05 L 428.24,505.03 L 427.98,504.64 L 427.44,503.94 L 427.13,503.69 L 426.50,503.28 L 426.15,503.16 L 425.42,503.00 M 483.47,475.34 L 481.70,475.62 L 480.95,476.03 L 480.22,476.29 L 479.53,476.44 L 479.09,476.51 L 477.04,476.76 L 475.64,476.85 L 472.61,477.00 L 470.75,477.03 L 466.80,477.08 L 464.52,477.06 L 459.61,477.05 L 456.77,477.10 L 455.54,477.15 L 453.22,477.28 L 452.24,477.37 L 450.39,477.57 L 449.62,477.71 L 448.20,478.01 L 447.62,478.19 L 446.57,478.59 L 446.17,478.83 L 445.44,479.33 L 445.18,479.63 L 444.73,480.25 L 444.60,480.61 L 444.66,481.98 L 445.14,483.00 L 445.54,483.40 L 446.51,485.11 L 446.90,486.58 L 446.96,487.30 L 446.98,488.70 L 446.84,489.19 L 446.67,489.64 L 446.54,489.78 L 446.26,490.00 L 446.07,490.00 L 445.28,489.49 L 444.82,488.73 L 444.69,488.25 L 444.49,487.69 L 444.37,487.58 L 444.32,487.66 L 444.23,487.90 L 444.20,488.15 L 444.13,488.74 L 444.12,489.17 L 443.69,491.17 L 443.14,492.12 L 442.82,492.23 L 442.52,492.60 L 442.34,493.12 L 442.27,493.53 L 442.13,494.45 L 442.07,495.07 L 441.96,496.42 L 441.92,497.26 L 441.84,499.07 L 441.81,500.16 L 441.76,502.46 L 441.75,503.81 L 441.72,506.64 L 441.72,508.26 L 441.72,511.65 L 441.73,513.56 L 441.77,519.38 L 441.81,522.72 L 441.84,524.15 L 441.91,526.85 L 441.95,527.98 L 442.05,530.12 L 442.11,531.01 L 442.24,532.67 L 442.33,533.35 L 442.50,534.61 L 442.61,535.13 L 443.08,536.89 L 443.40,537.50 L 444.02,538.56 L 444.38,539.08 L 444.52,539.23 L 444.79,539.47 L 444.87,539.46 L 444.99,539.37 L 444.99,539.19 L 445.31,538.46 L 445.77,538.36 L 446.06,538.54 L 446.72,539.78 L 446.89,541.12 L 446.81,541.85 L 446.50,544.50 L 457.50,545.01 L 461.69,545.25 L 463.83,545.44 L 464.54,545.54 L 465.19,545.64 L 465.41,545.68 L 465.80,545.78 L 465.88,545.83 L 465.98,545.93 L 465.92,545.97 L 465.72,546.06 L 465.50,546.11 L 462.50,546.70 L 466.00,546.87 L 467.59,546.99 L 468.27,547.12 L 468.42,547.20 L 468.62,547.40 L 468.54,547.53 L 468.28,547.82 L 468.00,548.00 L 467.47,548.45 L 467.44,548.67 L 467.60,548.74 L 468.03,548.86 L 468.43,548.89 L 469.35,548.92 L 470.00,548.91 L 471.47,548.85 L 472.09,548.77 L 472.23,548.70 L 472.39,548.56 L 472.31,548.47 L 472.02,548.27 L 471.71,548.15 L 471.59,547.87 L 472.09,547.71 L 472.58,547.64 L 473.74,547.52 L 474.52,547.48 L 476.21,547.41 L 477.21,547.40 L 480.89,547.26 L 483.06,547.04 L 484.05,546.86 L 487.83,545.90 L 489.78,545.05 L 492.67,543.90 L 494.32,543.42 L 495.13,543.30 L 496.74,543.13 L 497.64,543.15 L 499.54,543.26 L 500.71,543.40 L 505.09,544.19 L 506.28,544.51 L 506.73,544.68 L 507.50,545.00 L 507.68,545.15 L 508.61,545.72 L 509.00,545.74 L 509.00,545.55 L 509.39,545.46 L 509.97,545.83 L 510.34,546.20 L 511.51,546.74 L 512.73,546.98 L 513.50,547.05 L 515.13,547.15 L 516.04,547.15 L 517.89,547.12 L 518.83,547.06 L 520.71,546.91 L 521.60,546.80 L 523.32,546.54 L 524.06,546.38 L 525.43,546.03 L 525.92,545.83 L 526.76,545.39 L 526.91,545.15 L 527.74,544.17 L 528.29,543.87 L 528.57,543.90 L 529.13,544.08 L 529.41,544.34 L 529.98,545.00 L 530.26,545.50 L 530.87,546.26 L 531.48,546.82 L 531.85,547.10 L 533.48,548.20 L 534.35,548.59 L 535.25,548.93 L 535.80,549.05 L 536.97,549.28 L 537.64,549.36 L 540.56,549.55 L 542.24,549.49 L 545.73,549.27 L 547.57,549.01 L 551.25,548.39 L 553.04,547.94 L 554.92,547.63 L 556.41,547.54 L 557.23,547.55 L 560.72,547.71 L 562.54,548.01 L 565.07,548.42 L 566.48,548.63 L 567.06,548.70 L 568.14,548.84 L 568.57,548.88 L 569.34,548.93 L 569.63,548.93 L 570.51,548.85 L 570.64,548.70 L 570.69,548.31 L 570.50,548.00 L 570.74,547.29 L 571.55,546.99 L 572.19,546.98 L 573.22,546.93 L 573.63,546.85 L 573.70,546.78 L 573.75,546.62 L 573.64,546.50 L 573.35,546.24 L 573.08,546.07 L 572.55,545.63 L 572.49,545.39 L 572.61,545.29 L 572.94,545.11 L 573.27,545.04 L 574.03,544.90 L 574.58,544.83 L 577.50,544.50 L 577.71,512.25 L 577.74,507.32 L 577.76,504.30 L 577.76,502.91 L 577.77,500.21 L 577.77,498.98 L 577.77,496.60 L 577.77,495.52 L 577.76,493.43 L 577.75,492.49 L 577.74,490.68 L 577.73,489.87 L 577.67,486.88 L 577.62,485.73 L 577.52,483.65 L 577.46,482.90 L 577.31,481.57 L 577.21,481.14 L 577.01,480.43 L 576.88,480.25 L 576.62,480.00 L 576.46,480.00 L 575.43,479.71 L 575.00,479.27 L 575.00,479.00 L 574.50,478.61 L 573.71,478.38 L 573.13,478.29 L 571.86,478.13 L 571.08,478.08 L 569.45,478.00 L 568.54,478.00 L 565.19,478.09 L 563.54,478.25 L 562.91,478.41 L 561.78,478.79 L 561.33,479.08 L 560.46,479.73 L 560.04,480.19 L 558.85,481.60 L 558.30,482.43 L 558.14,482.82 L 557.74,484.36 L 557.88,485.25 L 557.70,485.78 L 557.34,486.00 L 557.09,486.00 L 556.59,486.54 L 556.54,487.33 L 556.67,487.84 L 556.37,489.64 L 555.42,490.81 L 554.57,491.36 L 553.10,492.23 L 552.31,492.52 L 551.94,492.54 L 551.17,492.47 L 550.71,492.30 L 549.72,491.87 L 549.05,491.52 L 547.54,490.93 L 546.30,490.59 L 545.62,490.45 L 542.78,490.00 L 541.52,490.00 L 539.10,489.91 L 537.97,489.74 L 537.58,489.56 L 536.90,489.13 L 536.65,488.79 L 536.20,488.02 L 535.99,487.47 L 534.13,483.97 L 533.24,482.81 L 532.65,482.15 L 531.38,480.78 L 530.56,479.95 L 529.27,478.97 L 528.21,478.52 L 527.49,478.37 L 525.89,478.14 L 524.79,478.08 L 523.63,478.03 L 522.96,478.02 L 521.55,478.00 L 520.74,478.00 L 517.81,478.04 L 516.17,478.11 L 515.48,478.18 L 514.20,478.36 L 513.66,478.50 L 512.66,478.81 L 512.24,479.04 L 511.45,479.53 L 511.11,479.85 L 510.46,480.56 L 510.17,481.01 L 509.59,481.96 L 509.30,482.55 L 508.73,483.80 L 508.42,484.54 L 506.91,488.15 L 502.95,484.58 L 500.93,482.91 L 499.71,482.09 L 499.12,481.81 L 497.97,481.32 L 497.40,481.19 L 496.23,481.00 L 495.61,481.00 L 493.96,480.87 L 493.03,480.65 L 492.64,480.45 L 491.89,480.02 L 491.56,479.71 L 490.94,479.03 L 490.65,478.59 L 488.75,476.74 L 487.12,475.86 L 486.21,475.62 L 484.37,475.28 M 360.19,491.90 L 359.33,499.49 L 359.10,503.30 L 358.83,509.82 L 358.83,507.54 L 359.31,499.64 L 359.63,495.69 L 360.50,489.53 M 360.74,487.79 L 361.37,483.92 L 362.00,481.04 M 363.56,474.19 L 364.02,472.29 L 364.34,471.22 M 365.74,466.61 L 366.34,464.66 L 367.57,460.87 L 367.89,460.04 M 494.95,459.04 L 495.48,459.26 L 495.73,459.51 L 496.20,460.09 L 496.36,460.50 L 496.64,461.28 L 496.70,461.54 L 496.78,461.94 L 496.72,461.92 L 495.44,461.41 L 494.82,461.09 L 494.60,460.93 L 494.00,460.30 L 494.00,459.92 L 494.28,459.15 L 494.69,458.98 M 475.95,437.20 L 477.79,437.45 L 478.63,437.72 L 478.91,437.93 L 479.38,438.42 L 479.52,438.79 L 479.74,439.61 L 479.81,440.17 L 480.11,441.46 L 480.46,442.17 L 480.72,442.47 L 481.30,443.02 L 481.69,443.25 L 482.53,443.69 L 483.06,443.87 L 485.27,445.15 L 486.00,446.26 L 486.00,446.95 L 485.96,447.74 L 485.85,448.01 L 485.55,448.48 L 485.25,448.61 L 484.53,448.83 L 483.96,448.87 L 482.66,448.90 L 481.75,448.87 L 476.52,448.52 L 473.49,448.10 L 472.25,447.81 L 469.97,447.18 L 469.15,446.79 L 467.73,445.98 L 467.39,445.52 L 466.65,444.13 L 466.51,443.33 L 466.60,443.02 L 466.88,442.45 L 467.18,442.27 L 467.89,442.00 L 468.39,442.00 L 469.69,441.25 L 470.65,440.15 L 471.03,439.45 L 471.86,438.17 L 472.44,437.61 L 472.80,437.44 L 473.58,437.19 L 474.09,437.15 L 475.21,437.14 M 387.08,430.55 L 387.74,431.33 L 387.94,432.05 L 387.94,432.50 L 387.86,433.46 L 387.71,434.01 L 387.36,435.16 L 387.09,435.79 L 385.78,438.44 L 384.79,439.87 L 382.61,442.76 L 381.26,444.18 L 379.41,445.97 L 378.43,446.76 L 378.00,446.97 L 377.19,447.28 L 376.80,447.28 L 376.01,447.19 L 375.57,447.03 L 374.04,446.77 L 373.61,446.94 L 373.39,447.14 L 373.05,447.51 L 375.48,442.48 L 377.28,438.89 L 381.32,431.91 L 381.39,431.80 L 383.54,430.98 L 385.67,430.45 L 386.83,430.40 M 400.00,408.03 L 400.00,408.11 L 400.73,409.10 L 401.81,409.87 L 402.50,410.18 L 404.27,411.21 L 405.00,411.88 L 405.00,412.09 L 404.74,412.55 L 404.33,412.87 L 404.03,413.03 L 402.55,413.68 L 401.56,413.98 L 399.43,414.54 L 398.28,414.73 L 395.95,415.06 L 394.86,415.09 L 394.14,415.29 L 393.58,415.61 L 393.26,415.86 L 392.59,416.42 L 392.20,416.79 L 391.41,417.60 L 390.97,418.10 L 390.06,419.17 L 389.55,419.80 L 388.51,421.12 L 387.95,421.88 L 387.71,422.20 L 387.99,421.78 L 389.12,420.20 L 391.99,416.68 L 393.51,414.88 L 395.36,412.86 L 395.36,412.87 L 395.51,412.92 L 395.90,413.00 L 396.23,413.00 L 397.47,412.41 L 398.15,411.55 L 398.29,411.00 L 398.59,409.59 L 398.60,409.36 L 398.82,409.12 L 400.12,407.82 M 435.33,379.38 L 430.77,382.06 L 428.63,383.45 L 426.11,385.14 L 427.39,384.22 L 432.50,380.96 L 435.61,379.19 L 436.08,378.95 M 455.46,369.69 L 455.79,369.54 L 456.94,369.09 M 473.02,363.71 L 467.93,365.18 L 465.35,366.03 L 460.20,367.82 L 459.87,367.94 L 462.06,367.09 L 463.57,366.52 L 466.40,365.56 L 470.27,364.38 L 474.60,363.20 L 477.85,362.55 M 488.23,360.60 L 488.28,360.59 L 488.42,360.58 M 502.64,359.27 L 496.94,359.65 L 497.65,359.58 L 502.33,359.17 L 506.18,359.09 M 513.28,359.04 L 507.23,359.06 L 511.66,358.97 M 418.67,633.29 L 421.19,635.21 L 418.67,633.29 Z" fill="rgba(0,0,1,1)"/>
<path d="M 468.20,547.90 L 467.93,548.06 L 467.48,548.47 L 467.49,548.67 L 467.66,548.74 L 468.11,548.86 L 468.49,548.89 L 469.38,548.92 L 469.35,548.92 L 468.43,548.89 L 468.03,548.86 L 467.60,548.74 L 467.44,548.67 L 467.47,548.45 L 468.00,548.00 L 468.24,547.85 M 570.74,547.29 L 570.50,548.00 L 570.71,547.29 L 571.49,547.00 L 571.52,547.00 M 573.70,546.78 L 573.63,546.85 L 573.22,546.93 L 573.15,546.94 L 573.54,546.86 L 573.65,546.80 L 573.74,546.65 M 464.94,546.24 L 464.79,546.30 L 464.43,546.51 L 464.63,546.60 L 465.27,546.75 L 465.93,546.82 L 466.71,546.92 L 466.00,546.87 L 462.50,546.70 L 465.22,546.16 M 577.46,482.90 L 577.52,483.65 L 577.62,485.73 L 577.67,486.88 L 577.73,489.87 L 577.74,490.68 L 577.75,492.49 L 577.76,493.43 L 577.77,495.52 L 577.77,496.60 L 577.77,498.98 L 577.77,500.21 L 577.76,502.91 L 577.76,504.30 L 577.74,507.32 L 577.71,512.25 L 577.50,544.50 L 574.58,544.83 L 574.03,544.90 L 573.27,545.04 L 572.94,545.11 L 572.61,545.29 L 572.49,545.39 L 572.55,545.63 L 573.06,546.06 L 572.74,545.89 L 572.03,545.68 L 570.41,545.26 L 569.34,545.09 L 565.66,544.49 L 565.85,525.50 L 565.86,518.02 L 565.84,515.73 L 565.81,514.67 L 565.77,512.62 L 565.74,511.70 L 565.67,509.93 L 565.63,509.18 L 565.55,507.76 L 565.50,507.20 L 565.40,506.18 L 565.35,505.84 L 565.24,505.28 L 565.18,505.19 L 564.88,505.17 L 564.59,505.46 L 564.41,505.76 L 564.01,506.46 L 563.77,506.97 L 563.25,508.07 L 562.96,508.78 L 562.33,510.30 L 561.98,511.21 L 561.24,513.14 L 560.83,514.26 L 559.98,516.60 L 559.51,517.92 L 558.55,520.66 L 558.02,522.19 L 555.47,529.48 L 553.87,533.92 L 553.18,535.78 L 552.50,537.58 L 552.20,538.36 L 551.63,539.83 L 551.38,540.43 L 550.93,541.53 L 550.76,541.92 L 550.44,542.60 L 550.35,542.75 L 549.49,543.82 L 548.83,544.34 L 548.42,544.51 L 547.55,544.81 L 547.00,544.89 L 545.83,545.00 L 545.10,545.00 L 542.08,544.63 L 541.25,544.38 L 540.94,544.24 L 540.38,543.92 L 540.25,543.75 L 539.92,543.14 L 539.59,542.40 L 539.38,541.88 L 538.91,540.75 L 538.64,540.05 L 538.06,538.58 L 537.74,537.73 L 536.35,534.05 L 535.56,531.89 L 533.94,527.41 L 533.10,525.00 L 530.64,518.05 L 529.12,513.82 L 528.48,512.05 L 527.87,510.35 L 527.60,509.62 L 527.09,508.22 L 526.88,507.66 L 526.49,506.62 L 526.35,506.26 L 526.10,505.64 L 526.04,505.50 L 525.83,505.37 L 525.71,505.64 L 525.65,505.94 L 525.54,506.66 L 525.49,507.18 L 525.39,508.34 L 525.35,509.09 L 525.27,510.68 L 525.24,511.64 L 525.17,513.65 L 525.15,514.82 L 525.10,517.25 L 525.09,518.61 L 525.06,521.44 L 525.05,523.00 L 524.95,530.67 L 524.90,533.02 L 524.86,534.11 L 524.79,536.21 L 524.75,537.16 L 524.66,538.96 L 524.62,539.74 L 524.52,541.19 L 524.47,541.76 L 524.36,542.80 L 524.31,543.15 L 524.20,543.72 L 524.14,543.81 L 523.47,544.36 L 522.76,544.63 L 522.28,544.71 L 521.24,544.85 L 520.59,544.86 L 519.21,544.86 L 518.40,544.81 L 513.50,544.50 L 512.97,483.00 L 529.54,483.00 L 536.34,502.75 L 539.08,510.65 L 540.78,515.51 L 541.50,517.56 L 542.21,519.55 L 542.52,520.42 L 543.11,522.07 L 543.36,522.74 L 543.81,524.00 L 543.99,524.45 L 544.29,525.24 L 544.37,525.45 L 544.79,526.30 L 545.07,526.61 L 545.23,526.60 L 545.58,526.45 L 545.79,526.15 L 546.26,525.39 L 546.56,524.74 L 547.21,523.24 L 547.62,522.17 L 548.53,519.80 L 549.09,518.23 L 549.68,516.60 L 550.00,515.69 L 550.68,513.79 L 551.05,512.73 L 551.82,510.53 L 552.24,509.32 L 553.11,506.82 L 553.59,505.45 L 561.58,482.50 L 569.62,482.85 L 571.94,482.94 L 573.23,482.97 L 573.77,482.97 L 575.64,482.94 L 576.22,482.85 L 577.16,482.62 L 577.37,482.41 L 577.40,482.38 M 446.54,489.78 L 446.67,489.64 L 446.84,489.19 L 446.98,488.70 L 446.96,487.30 L 446.90,486.58 L 446.51,485.11 L 445.72,483.72 L 445.93,483.75 L 446.53,483.68 L 446.77,483.31 L 447.18,483.01 L 447.65,482.85 L 448.00,482.78 L 448.77,482.67 L 449.28,482.63 L 450.39,482.56 L 451.08,482.54 L 452.56,482.52 L 453.45,482.53 L 455.34,482.55 L 456.45,482.58 L 458.78,482.65 L 460.12,482.70 L 462.93,482.81 L 464.52,482.89 L 471.05,483.23 L 474.73,483.50 L 476.29,483.67 L 479.23,484.03 L 480.47,484.26 L 482.82,484.75 L 483.82,485.07 L 485.72,485.75 L 486.55,486.18 L 488.15,487.10 L 488.89,487.66 L 490.34,488.86 L 491.05,489.58 L 492.50,491.10 L 493.27,492.00 L 496.50,496.72 L 498.10,500.21 L 498.63,502.16 L 499.53,506.21 L 499.72,508.49 L 499.95,513.22 L 499.82,515.90 L 499.67,518.45 L 499.56,519.94 L 499.49,520.60 L 499.17,523.02 L 498.93,524.03 L 498.36,525.98 L 497.94,526.95 L 497.00,528.91 L 496.35,530.07 L 493.32,534.44 L 490.92,537.08 L 489.59,538.22 L 486.87,540.34 L 485.46,541.15 L 482.62,542.58 L 481.22,542.98 L 479.19,543.48 L 477.41,543.88 L 476.39,544.08 L 472.06,544.92 L 470.00,545.26 L 468.05,545.59 L 466.97,545.78 L 466.54,545.86 L 465.84,546.01 L 465.92,545.97 L 465.98,545.93 L 465.88,545.83 L 465.80,545.78 L 465.41,545.68 L 465.19,545.64 L 464.54,545.54 L 463.83,545.44 L 461.69,545.25 L 457.50,545.01 L 446.50,544.50 L 446.81,541.85 L 446.89,541.12 L 446.72,539.78 L 446.06,538.54 L 445.77,538.36 L 445.34,538.45 L 445.48,538.22 L 445.73,537.29 L 445.89,536.21 L 445.96,535.47 L 446.11,533.86 L 446.18,532.89 L 446.31,530.85 L 446.37,529.69 L 446.48,527.29 L 446.53,525.99 L 446.63,523.33 L 446.67,521.93 L 446.81,516.17 L 446.86,513.23 L 446.92,507.36 L 446.92,504.64 L 446.91,501.96 L 446.89,500.71 L 446.86,498.29 L 446.83,497.20 L 446.77,495.13 L 446.73,494.25 L 446.64,492.60 L 446.59,491.98 L 446.47,490.85 L 446.40,490.52 L 446.25,490.00 L 446.26,490.00 M 444.99,539.19 L 444.99,539.37 L 444.87,539.46 L 444.79,539.47 L 444.52,539.23 L 444.42,539.12 L 444.72,539.18 L 444.90,539.02 L 445.25,538.60 M 443.11,536.89 L 443.30,537.30 L 443.08,536.89 L 443.03,536.72 M 441.93,526.10 L 442.05,528.27 L 442.18,530.37 L 442.26,531.30 L 442.42,533.08 L 442.51,533.82 L 442.69,535.20 L 442.79,535.72 L 442.92,536.29 L 442.61,535.13 L 442.50,534.61 L 442.33,533.35 L 442.24,532.67 L 442.11,531.01 L 442.05,530.12 L 441.95,527.98 L 441.91,526.85 L 441.84,524.15 L 441.81,522.72 L 441.81,522.61 M 459.00,534.20 L 467.93,533.85 L 471.22,533.66 L 473.13,533.49 L 473.96,533.36 L 475.55,533.08 L 476.25,532.90 L 477.59,532.49 L 478.19,532.23 L 480.42,531.01 L 481.42,530.10 L 482.40,529.12 L 482.90,528.55 L 483.91,527.33 L 484.44,526.61 L 485.51,524.82 L 485.99,523.44 L 486.13,522.50 L 486.27,521.52 L 486.31,520.93 L 486.40,519.70 L 486.43,518.97 L 486.47,517.43 L 486.48,516.52 L 486.50,514.61 L 486.50,513.50 L 486.48,510.48 L 486.45,508.76 L 486.43,508.03 L 486.36,506.65 L 486.31,506.07 L 486.21,504.96 L 486.13,504.50 L 485.78,502.83 L 485.51,502.18 L 484.88,500.98 L 484.44,500.39 L 481.46,496.96 L 479.46,495.38 L 478.28,494.86 L 477.04,494.38 L 476.35,494.19 L 474.89,493.85 L 474.06,493.72 L 472.32,493.48 L 471.31,493.40 L 469.21,493.24 L 468.00,493.19 L 459.00,492.76 M 443.15,492.12 L 442.82,492.23 L 442.51,492.78 L 442.33,493.57 L 442.25,494.15 L 442.10,495.42 L 442.03,496.22 L 441.91,497.91 L 441.86,498.88 L 441.82,499.71 L 441.84,499.07 L 441.92,497.26 L 441.96,496.42 L 442.07,495.07 L 442.13,494.45 L 442.27,493.53 L 442.34,493.12 L 442.52,492.60 L 442.82,492.23 L 443.14,492.12 L 443.69,491.17 L 444.12,489.17 L 443.69,491.17 M 444.61,480.95 L 444.60,480.61 L 444.65,480.48 M 449.42,477.75 L 449.62,477.71 L 449.69,477.70 M 449.71,477.69 L 450.39,477.57 L 450.46,477.57 M 456.84,477.10 L 455.62,477.15 L 453.31,477.27 L 452.32,477.36 L 450.71,477.54 L 452.24,477.37 L 453.22,477.28 L 455.54,477.15 L 456.77,477.10 L 459.61,477.05 L 464.52,477.06 L 459.67,477.05 M 575.39,479.71 L 575.00,479.27 L 575.43,479.71 L 576.46,480.00 L 576.33,480.00 Z" fill="rgba(10,247,254,1)"/>
<path d="M 516.27,359.06 L 519.97,359.22 L 525.25,359.60 L 528.51,359.92 L 534.60,360.68 L 537.58,361.09 L 543.22,362.08 L 545.99,362.60 L 551.32,363.86 L 553.96,364.53 L 559.11,366.10 L 561.69,366.93 L 566.82,368.86 L 569.39,369.87 L 574.64,372.21 L 577.29,373.43 L 582.80,376.22 L 591.50,380.96 L 592.99,381.80 L 596.35,384.02 L 598.08,385.21 L 601.79,388.00 L 603.68,389.45 L 607.60,392.67 L 609.57,394.33 L 613.53,397.84 L 615.51,399.63 L 619.37,403.30 L 621.27,405.14 L 624.86,408.83 L 626.61,410.66 L 629.79,414.22 L 633.93,419.27 L 636.70,422.92 L 641.75,430.63 L 644.18,434.55 L 648.53,442.72 L 650.61,446.85 L 654.22,455.38 L 655.93,459.69 L 658.79,468.49 L 660.12,472.91 L 662.18,481.88 L 663.11,486.37 L 664.36,495.41 L 664.87,499.93 L 665.27,508.94 L 664.88,522.31 L 664.64,525.35 L 663.85,531.55 L 663.41,534.66 L 662.25,540.90 L 661.63,544.02 L 660.15,550.20 L 659.36,553.27 L 657.58,559.26 L 656.65,562.22 L 654.61,567.91 L 653.56,570.71 L 651.29,575.98 L 650.13,578.55 L 647.68,583.29 L 643.82,589.68 L 643.05,590.83 L 641.83,592.83 L 641.57,593.28 L 641.22,593.95 L 641.00,594.55 L 641.00,594.64 L 640.55,595.42 L 640.26,595.89 L 639.33,597.28 L 638.81,598.03 L 637.52,599.85 L 635.31,602.87 L 634.05,604.56 L 631.03,608.20 L 629.46,610.05 L 625.94,613.88 L 624.13,615.80 L 620.27,619.68 L 618.31,621.62 L 614.26,625.40 L 612.22,627.27 L 608.14,630.82 L 606.11,632.55 L 602.15,635.71 L 600.20,637.23 L 596.52,639.87 L 591.50,643.08 L 588.82,644.61 L 583.36,647.46 L 580.63,648.84 L 575.09,651.39 L 572.31,652.62 L 566.72,654.84 L 563.93,655.91 L 558.33,657.81 L 555.53,658.72 L 549.95,660.27 L 547.17,661.01 L 541.66,662.21 L 538.91,662.77 L 533.49,663.61 L 525.50,664.44 L 523.02,664.62 L 518.26,664.99 L 517.17,665.08 L 515.38,665.24 L 513.50,665.43 L 513.29,665.45 L 512.64,665.47 L 512.28,665.48 L 511.35,665.46 L 510.35,665.44 L 507.70,665.30 L 506.29,665.22 L 503.07,664.97 L 501.42,664.84 L 497.96,664.51 L 495.64,664.27 L 491.28,663.73 L 489.14,663.45 L 485.07,662.81 L 481.07,662.13 L 473.56,660.32 L 469.82,659.33 L 462.25,656.76 L 460.32,656.06 L 456.31,654.47 L 450.00,651.80 L 448.41,651.10 L 445.49,649.77 L 444.07,649.12 L 441.43,647.84 L 438.86,646.58 L 434.30,644.06 L 432.08,642.78 L 427.82,640.00 L 421.19,635.21 L 417.41,632.33 L 410.40,626.33 L 406.99,623.28 L 400.68,616.93 L 397.61,613.71 L 391.98,606.99 L 389.25,603.58 L 384.29,596.45 L 381.89,592.84 L 377.58,585.29 L 375.50,581.45 L 371.82,573.45 L 370.05,569.38 L 366.98,560.90 L 363.04,547.60 L 362.15,544.12 L 360.80,536.96 L 360.19,533.34 L 359.40,525.95 L 359.07,522.23 L 358.84,514.69 L 358.79,510.91 L 359.10,503.30 L 359.33,499.49 L 360.19,491.90 L 360.68,488.11 L 362.08,480.60 L 362.85,476.87 L 364.79,469.54 L 368.29,458.82 L 368.86,457.29 L 369.80,454.78 L 370.25,453.60 L 370.99,451.71 L 371.35,450.84 L 371.94,449.49 L 372.22,448.88 L 372.72,448.01 L 372.95,447.63 L 373.39,447.14 L 373.61,446.94 L 374.04,446.77 L 375.57,447.03 L 376.01,447.19 L 376.80,447.28 L 377.19,447.28 L 378.00,446.97 L 378.43,446.76 L 379.41,445.97 L 381.26,444.18 L 382.61,442.76 L 384.79,439.87 L 385.78,438.44 L 387.09,435.79 L 387.36,435.16 L 387.71,434.01 L 387.86,433.46 L 387.94,432.50 L 387.94,432.05 L 387.74,431.33 L 387.08,430.55 L 386.83,430.40 L 385.67,430.45 L 383.54,430.98 L 380.92,431.98 L 384.15,427.24 L 384.85,426.21 L 386.15,424.36 L 386.78,423.47 L 387.95,421.88 L 388.51,421.12 L 389.55,419.80 L 390.06,419.17 L 390.97,418.10 L 391.41,417.60 L 392.20,416.79 L 392.59,416.42 L 393.26,415.86 L 393.58,415.61 L 394.14,415.29 L 394.86,415.09 L 395.95,415.06 L 398.28,414.73 L 399.43,414.54 L 401.56,413.98 L 402.55,413.68 L 404.03,413.03 L 404.33,412.87 L 404.74,412.55 L 405.00,412.09 L 405.00,411.88 L 404.27,411.21 L 402.50,410.18 L 401.81,409.87 L 400.73,409.10 L 400.00,408.11 L 400.00,408.03 L 400.17,407.74 L 400.28,407.57 L 400.65,407.11 L 401.08,406.61 L 402.44,405.20 L 403.20,404.44 L 405.11,402.61 L 406.11,401.66 L 408.39,399.57 L 410.73,397.45 L 415.77,393.11 L 417.00,392.07 L 419.34,390.16 L 422.50,387.70 L 424.43,386.26 L 428.63,383.45 L 430.77,382.06 L 435.33,379.38 L 437.65,378.06 L 442.48,375.55 L 444.93,374.32 L 449.96,372.01 L 452.49,370.88 L 457.62,368.82 L 460.20,367.82 L 465.35,366.03 L 467.93,365.18 L 473.02,363.71 L 480.50,361.91 L 482.11,361.58 L 485.57,361.00 L 487.33,360.72 L 491.03,360.24 L 494.77,359.80 L 502.64,359.27 L 506.58,359.06 L 514.36,359.04 M 493.00,430.71 L 492.43,430.86 L 491.64,431.63 L 491.31,432.06 L 491.04,433.08 L 490.98,433.58 L 491.28,434.41 L 492.44,435.00 L 492.97,435.00 L 493.77,435.32 L 494.12,435.52 L 494.52,436.15 L 494.66,436.49 L 494.60,437.29 L 493.95,438.56 L 493.78,438.76 L 493.41,439.46 L 493.23,439.85 L 492.86,440.82 L 491.96,444.19 L 491.78,445.18 L 491.63,446.60 L 491.60,447.25 L 491.89,448.30 L 492.10,448.83 L 492.98,449.95 L 493.25,450.26 L 493.93,450.95 L 495.18,452.18 L 495.99,452.95 L 497.32,454.07 L 497.97,454.58 L 499.14,455.24 L 499.72,455.53 L 500.93,455.84 L 503.02,456.00 L 504.35,456.00 L 506.70,456.28 L 507.80,456.47 L 509.57,457.06 L 510.36,457.39 L 511.36,458.23 L 511.82,459.67 L 511.76,459.99 L 511.39,460.64 L 511.17,460.97 L 510.53,461.61 L 509.84,462.24 L 507.93,463.31 L 506.93,463.80 L 504.80,464.40 L 501.93,464.48 L 501.16,464.31 L 499.29,464.40 L 496.89,465.06 L 496.43,465.31 L 495.72,465.60 L 495.39,465.71 L 494.86,465.72 L 494.61,465.68 L 494.16,465.40 L 493.47,464.63 L 493.10,464.12 L 491.80,463.47 L 491.08,463.21 L 489.37,463.05 L 488.49,463.04 L 486.73,463.38 L 484.44,464.47 L 484.17,464.67 L 483.39,465.04 L 482.96,465.22 L 481.96,465.51 L 478.72,465.97 L 477.96,465.97 L 476.82,465.88 L 476.29,465.82 L 475.52,465.54 L 475.18,465.38 L 474.67,464.86 L 474.09,463.75 L 473.92,463.30 L 473.77,462.58 L 473.73,462.24 L 473.87,461.69 L 473.98,461.43 L 474.45,460.96 L 475.58,460.24 L 476.27,459.87 L 477.05,459.00 L 477.34,458.56 L 477.35,457.68 L 477.26,457.26 L 476.53,456.53 L 474.65,455.78 L 473.83,455.63 L 472.54,455.58 L 471.95,455.60 L 471.09,455.91 L 470.72,456.12 L 470.26,456.82 L 469.98,458.33 L 469.98,458.75 L 469.93,459.30 L 469.90,459.54 L 469.78,459.74 L 469.71,459.80 L 469.51,459.66 L 469.08,459.09 L 468.83,458.70 L 468.62,457.65 L 468.76,456.18 L 468.96,455.67 L 468.89,455.23 L 468.10,455.44 L 467.76,455.65 L 467.38,456.38 L 467.39,457.57 L 467.57,458.05 L 467.47,458.80 L 467.32,459.15 L 466.40,459.70 L 466.11,459.83 L 465.34,460.07 L 464.92,460.19 L 463.88,460.41 L 463.33,460.52 L 461.99,460.73 L 459.61,461.05 L 458.53,461.19 L 456.16,461.62 L 454.96,461.86 L 452.43,462.47 L 449.88,463.11 L 444.86,464.73 L 443.66,465.14 L 441.43,466.00 L 440.36,466.43 L 438.50,467.28 L 437.63,467.70 L 436.27,468.50 L 434.92,469.59 L 434.55,470.04 L 434.37,471.07 L 434.99,472.99 L 435.41,473.76 L 435.62,475.37 L 435.62,475.80 L 435.48,476.76 L 435.03,478.42 L 434.78,479.17 L 434.30,480.22 L 434.03,480.68 L 433.33,481.32 L 432.93,481.59 L 431.76,481.97 L 429.21,482.45 L 427.92,482.64 L 424.66,482.91 L 423.85,482.97 L 422.32,483.03 L 420.33,483.04 L 419.18,483.01 L 417.56,483.14 L 416.83,483.27 L 415.78,483.99 L 415.54,484.22 L 415.09,484.85 L 414.88,485.20 L 414.45,486.10 L 414.24,486.58 L 413.78,487.79 L 413.01,490.00 L 412.86,490.47 L 412.59,491.52 L 412.47,492.08 L 412.26,493.41 L 412.17,494.12 L 412.03,495.85 L 411.96,496.78 L 411.88,499.06 L 411.84,500.27 L 411.80,503.21 L 411.79,504.78 L 411.80,508.52 L 411.82,510.50 L 411.87,515.17 L 411.89,516.40 L 411.93,519.07 L 412.00,523.37 L 412.50,552.24 L 417.54,556.87 L 418.38,557.65 L 419.86,559.04 L 420.56,559.70 L 421.75,560.89 L 422.32,561.45 L 423.25,562.45 L 423.68,562.93 L 424.37,563.76 L 424.68,564.16 L 425.13,564.84 L 425.33,565.16 L 425.56,565.72 L 425.51,566.98 L 425.39,567.17 L 424.99,567.35 L 424.76,567.41 L 424.13,567.31 L 423.78,567.23 L 422.89,566.86 L 421.27,566.00 L 420.29,565.42 L 418.36,564.67 L 417.91,564.52 L 417.16,564.38 L 416.36,564.42 L 415.92,564.58 L 415.37,565.31 L 415.16,565.73 L 415.05,566.81 L 415.05,567.38 L 415.39,568.63 L 416.38,570.50 L 416.66,570.89 L 417.01,571.50 L 417.16,571.79 L 417.24,572.27 L 417.25,572.51 L 417.06,572.95 L 416.47,573.68 L 416.11,574.03 L 415.69,575.11 L 415.64,576.73 L 415.74,577.12 L 416.26,577.67 L 416.44,577.79 L 416.95,577.98 L 417.23,578.07 L 418.01,578.20 L 418.44,578.26 L 419.55,578.35 L 420.15,578.39 L 421.65,578.44 L 422.45,578.47 L 424.41,578.49 L 427.92,578.50 L 429.02,578.50 L 430.95,578.49 L 431.87,578.47 L 433.46,578.44 L 434.21,578.42 L 435.47,578.36 L 436.07,578.32 L 437.03,578.23 L 437.48,578.19 L 438.16,578.07 L 438.47,578.01 L 438.89,577.86 L 439.28,577.30 L 439.20,577.08 L 438.83,576.66 L 438.61,576.46 L 437.98,576.06 L 437.30,575.67 L 435.30,575.01 L 434.22,574.70 L 431.60,574.24 L 427.25,573.86 L 426.53,573.83 L 425.21,573.72 L 424.58,573.66 L 423.54,573.49 L 423.07,573.39 L 422.41,573.18 L 422.00,572.84 L 422.00,572.61 L 422.27,572.25 L 422.93,572.00 L 423.18,572.00 L 424.06,571.53 L 425.46,570.40 L 425.83,570.03 L 426.51,569.58 L 426.88,569.40 L 427.86,569.32 L 428.42,569.33 L 430.09,569.65 L 430.56,569.75 L 431.71,570.03 L 433.78,570.57 L 435.63,571.06 L 439.39,572.42 L 440.26,572.76 L 441.76,573.44 L 443.43,574.37 L 444.36,575.01 L 446.85,575.89 L 451.18,576.50 L 452.51,576.53 L 454.94,576.93 L 455.49,577.05 L 456.36,577.33 L 457.21,577.81 L 457.58,578.18 L 458.71,578.66 L 459.30,578.85 L 460.61,578.96 L 461.25,578.97 L 462.40,578.71 L 463.57,577.89 L 463.67,577.72 L 464.11,577.47 L 464.36,577.36 L 465.05,577.25 L 467.88,577.40 L 468.38,577.49 L 470.07,577.72 L 471.00,577.85 L 473.35,578.13 L 481.41,579.00 L 483.00,579.16 L 485.75,579.52 L 487.05,579.71 L 489.19,580.13 L 490.18,580.34 L 491.64,580.80 L 493.03,581.52 L 493.43,581.89 L 494.75,582.73 L 495.48,583.17 L 497.35,584.12 L 498.34,584.60 L 500.60,585.60 L 501.76,586.09 L 504.24,587.07 L 506.74,588.02 L 511.70,589.61 L 512.89,589.96 L 515.04,590.50 L 517.79,591.00 L 518.66,591.11 L 520.26,591.32 L 521.04,591.43 L 522.35,591.64 L 522.95,591.74 L 523.82,591.92 L 524.46,592.13 L 524.52,592.19 L 524.90,592.29 L 525.13,592.35 L 525.81,592.44 L 526.56,592.52 L 528.79,592.64 L 530.00,592.70 L 532.91,592.75 L 534.42,592.77 L 537.69,592.76 L 539.34,592.75 L 542.63,592.68 L 544.25,592.63 L 547.24,592.50 L 548.66,592.43 L 551.02,592.25 L 551.56,592.20 L 552.46,592.09 L 552.87,592.03 L 553.50,591.91 L 555.34,591.48 L 558.79,590.28 L 560.45,589.64 L 563.36,588.10 L 564.73,587.30 L 566.85,585.57 L 567.32,585.13 L 568.07,584.24 L 568.88,582.91 L 569.17,582.25 L 569.68,581.34 L 569.94,580.95 L 570.49,580.51 L 570.79,580.35 L 571.57,580.29 L 573.17,580.54 L 574.22,580.77 L 576.27,580.69 L 577.27,580.57 L 579.15,579.82 L 580.06,579.38 L 581.67,578.03 L 583.63,575.38 L 584.15,574.43 L 585.61,572.49 L 585.99,572.04 L 586.73,571.28 L 587.75,570.43 L 588.55,569.91 L 589.49,568.63 L 589.85,567.96 L 589.92,566.50 L 589.85,565.76 L 589.07,564.26 L 586.95,562.12 L 586.39,561.71 L 585.38,561.10 L 584.88,560.84 L 583.94,560.51 L 581.04,560.49 L 580.18,560.68 L 578.78,560.63 L 577.48,559.96 L 577.18,559.48 L 577.37,558.49 L 577.58,558.00 L 578.67,557.09 L 579.31,556.65 L 581.11,555.95 L 584.42,555.26 L 585.69,555.11 L 587.87,554.59 L 588.35,554.45 L 589.06,554.16 L 589.67,553.73 L 589.71,553.66 L 589.80,553.10 L 589.84,552.75 L 589.93,551.67 L 589.97,551.08 L 590.06,549.55 L 590.10,548.74 L 590.19,546.82 L 590.23,545.82 L 590.30,543.57 L 590.34,542.41 L 590.41,539.89 L 590.56,531.61 L 590.60,528.71 L 590.76,522.71 L 590.85,519.73 L 591.09,514.07 L 591.15,512.71 L 591.29,510.16 L 591.36,508.93 L 591.51,506.69 L 591.58,505.62 L 591.73,503.78 L 591.97,501.55 L 592.14,500.22 L 592.36,497.77 L 592.46,496.57 L 592.52,494.36 L 592.54,492.19 L 592.07,488.36 L 591.75,486.49 L 590.52,482.95 L 587.75,477.50 L 587.32,476.80 L 586.58,475.60 L 586.22,475.04 L 585.59,474.11 L 584.98,473.24 L 583.92,472.15 L 583.40,471.69 L 582.31,471.24 L 580.33,471.02 L 580.03,471.01 L 579.25,470.81 L 578.84,470.69 L 577.93,470.28 L 575.21,468.53 L 574.55,467.97 L 573.31,467.18 L 572.65,466.84 L 570.96,466.39 L 570.48,466.29 L 569.33,466.13 L 568.72,466.06 L 567.24,465.94 L 566.46,465.88 L 564.57,465.78 L 561.21,465.64 L 559.82,465.59 L 557.48,465.52 L 556.38,465.50 L 554.54,465.50 L 553.67,465.51 L 552.22,465.60 L 551.52,465.65 L 550.33,465.86 L 549.19,466.10 L 547.19,467.04 L 546.67,467.32 L 545.57,468.03 L 543.69,469.33 L 543.06,469.77 L 542.14,470.32 L 541.71,470.53 L 540.89,470.58 L 540.45,470.54 L 539.31,470.05 L 538.99,469.89 L 538.21,469.46 L 536.81,468.66 L 535.62,467.97 L 532.56,466.58 L 531.79,466.25 L 530.32,465.70 L 528.38,465.08 L 527.35,464.81 L 525.17,463.89 L 524.10,463.40 L 522.14,462.23 L 521.23,461.64 L 519.89,460.47 L 519.61,460.19 L 519.23,459.68 L 519.00,459.01 L 519.00,458.92 L 519.39,458.66 L 519.64,458.52 L 520.43,458.20 L 521.30,457.87 L 523.71,457.18 L 524.94,456.85 L 527.33,456.35 L 527.87,456.25 L 528.79,456.14 L 529.77,456.12 L 530.28,456.20 L 531.14,456.19 L 531.54,456.16 L 532.15,455.94 L 532.43,455.80 L 532.78,455.37 L 533.00,454.50 L 533.00,454.32 L 532.61,453.81 L 532.35,453.54 L 531.55,452.89 L 530.66,452.21 L 528.17,450.72 L 526.88,449.99 L 524.31,448.82 L 523.71,448.57 L 522.66,448.22 L 521.44,448.00 L 521.11,448.00 L 520.26,447.60 L 519.11,446.63 L 518.89,446.36 L 518.64,445.86 L 518.54,445.62 L 518.55,445.18 L 518.63,444.76 L 519.53,444.11 L 520.11,443.82 L 521.98,443.44 L 525.83,443.22 L 527.26,443.22 L 529.40,443.05 L 530.36,442.93 L 531.60,442.50 L 532.11,442.25 L 532.48,441.54 L 532.10,440.16 L 531.95,439.92 L 531.11,439.53 L 530.58,439.35 L 528.93,439.06 L 527.99,438.92 L 525.44,438.71 L 520.53,438.48 L 509.78,438.14 L 510.37,441.11 L 510.56,442.04 L 510.40,443.41 L 510.24,444.00 L 509.51,444.64 L 509.08,444.86 L 507.94,444.69 L 505.92,443.43 L 505.21,442.79 L 504.45,441.43 L 504.17,440.75 L 504.23,439.49 L 504.35,438.90 L 505.19,437.97 L 507.25,437.18 L 508.03,437.09 L 509.21,436.55 L 509.45,436.40 L 509.79,436.04 L 510.00,435.45 L 510.00,435.26 L 509.78,434.86 L 509.64,434.66 L 509.19,434.29 L 507.25,433.49 L 506.87,433.41 L 505.81,433.16 L 505.24,433.03 L 503.91,432.69 L 499.75,431.56 L 498.45,431.18 L 495.81,430.74 L 495.20,430.67 L 494.16,430.61 M 493.42,586.32 L 493.24,586.50 L 493.12,587.20 L 493.41,588.62 L 493.53,588.95 L 493.78,589.38 L 493.91,589.57 L 494.17,589.72 L 494.32,589.76 L 494.64,589.64 L 495.23,589.17 L 495.68,588.72 L 495.90,588.00 L 495.89,587.63 L 495.22,586.82 L 494.83,586.43 L 494.17,586.14 L 493.86,586.07 M 569.55,562.08 L 569.80,562.49 L 569.82,563.20 L 569.76,563.52 L 569.26,563.99 L 568.96,564.18 L 568.09,564.32 L 567.62,564.33 L 566.52,564.04 L 566.04,563.87 L 565.44,563.61 L 565.20,563.49 L 565.10,563.26 L 565.11,563.14 L 565.52,562.83 L 566.71,562.15 L 567.49,561.74 L 568.53,561.52 M 426.15,503.16 L 426.50,503.28 L 427.13,503.69 L 427.44,503.94 L 427.98,504.64 L 428.24,505.03 L 428.70,506.05 L 428.93,506.61 L 429.33,507.99 L 429.52,508.73 L 429.87,510.50 L 430.05,511.43 L 430.36,513.63 L 430.82,517.44 L 430.94,518.61 L 431.14,520.62 L 431.24,521.57 L 431.37,523.19 L 431.43,523.95 L 431.49,525.23 L 431.52,525.83 L 431.51,526.83 L 431.49,527.77 L 431.22,529.08 L 430.49,530.65 L 429.89,531.57 L 429.27,533.51 L 429.05,534.52 L 429.22,536.73 L 429.41,537.89 L 430.40,540.54 L 432.84,545.15 L 433.41,546.10 L 434.63,547.80 L 435.25,548.63 L 436.60,550.10 L 437.29,550.80 L 438.80,552.06 L 439.58,552.66 L 441.28,553.72 L 442.16,554.22 L 444.09,555.10 L 445.09,555.52 L 447.28,556.24 L 448.42,556.59 L 450.90,557.17 L 455.00,557.90 L 456.31,558.10 L 458.31,558.53 L 459.21,558.75 L 460.47,559.28 L 461.01,559.56 L 461.64,560.23 L 462.00,561.48 L 462.00,561.80 L 461.41,562.35 L 461.03,562.61 L 459.78,563.03 L 459.09,563.23 L 457.32,563.51 L 456.38,563.63 L 454.21,563.77 L 451.98,563.87 L 446.91,563.62 L 444.37,563.41 L 439.50,562.49 L 437.96,562.13 L 435.28,561.28 L 434.00,560.82 L 431.80,559.72 L 430.76,559.13 L 429.00,557.69 L 428.16,556.92 L 426.77,555.05 L 426.11,554.06 L 425.03,551.68 L 424.53,550.42 L 423.71,547.45 L 423.32,545.88 L 422.70,542.22 L 421.93,535.86 L 421.66,533.04 L 421.25,527.98 L 421.08,525.54 L 420.87,521.22 L 420.80,519.15 L 420.80,515.56 L 420.82,513.85 L 421.02,510.98 L 421.15,509.63 L 421.56,507.45 L 421.78,506.45 L 422.39,504.97 L 422.73,504.31 L 423.54,503.49 L 425.01,503.00 L 425.42,503.00 M 494.28,459.15 L 494.00,459.92 L 494.00,460.30 L 494.60,460.93 L 494.82,461.09 L 495.44,461.41 L 496.72,461.92 L 496.78,461.94 L 496.70,461.54 L 496.64,461.28 L 496.36,460.50 L 496.20,460.09 L 495.73,459.51 L 495.48,459.26 L 494.95,459.04 L 494.69,458.98 M 474.09,437.15 L 473.58,437.19 L 472.80,437.44 L 472.44,437.61 L 471.86,438.17 L 471.03,439.45 L 470.65,440.15 L 469.69,441.25 L 468.39,442.00 L 467.89,442.00 L 467.18,442.27 L 466.88,442.45 L 466.60,443.02 L 466.51,443.33 L 466.65,444.13 L 467.39,445.52 L 467.73,445.98 L 469.15,446.79 L 469.97,447.18 L 472.25,447.81 L 473.49,448.10 L 476.52,448.52 L 481.75,448.87 L 482.66,448.90 L 483.96,448.87 L 484.53,448.83 L 485.25,448.61 L 485.55,448.48 L 485.85,448.01 L 485.96,447.74 L 486.00,446.95 L 486.00,446.26 L 485.27,445.15 L 483.06,443.87 L 482.53,443.69 L 481.69,443.25 L 481.30,443.02 L 480.72,442.47 L 480.46,442.17 L 480.11,441.46 L 479.81,440.17 L 479.74,439.61 L 479.52,438.79 L 479.38,438.42 L 478.91,437.93 L 478.63,437.72 L 477.79,437.45 L 475.95,437.20 L 475.21,437.14 Z" fill="rgba(0,0,0,1)"/>
<path d="M 534.35,548.59 L 533.48,548.20 L 531.85,547.10 L 531.48,546.82 L 530.87,546.26 L 530.26,545.50 L 529.98,545.00 L 529.41,544.34 L 529.13,544.08 L 528.57,543.90 L 528.29,543.87 L 527.74,544.17 L 526.91,545.15 L 526.76,545.39 L 525.92,545.83 L 525.43,546.03 L 524.06,546.38 L 523.32,546.54 L 521.60,546.80 L 520.71,546.91 L 518.83,547.06 L 517.89,547.12 L 516.04,547.15 L 515.13,547.15 L 513.50,547.05 L 512.73,546.98 L 511.51,546.74 L 510.34,546.20 L 509.97,545.83 L 509.39,545.46 L 509.00,545.55 L 509.00,545.74 L 508.61,545.72 L 507.68,545.15 L 507.50,545.00 L 506.73,544.68 L 506.28,544.51 L 505.09,544.19 L 500.71,543.40 L 499.54,543.26 L 497.64,543.15 L 496.74,543.13 L 495.13,543.30 L 494.32,543.42 L 492.67,543.90 L 489.78,545.05 L 487.83,545.90 L 484.05,546.86 L 483.06,547.04 L 480.89,547.26 L 477.21,547.40 L 476.21,547.41 L 474.52,547.48 L 473.74,547.52 L 472.58,547.64 L 472.09,547.71 L 471.59,547.87 L 471.71,548.15 L 472.02,548.27 L 472.31,548.47 L 472.39,548.56 L 472.23,548.70 L 472.09,548.77 L 471.47,548.85 L 470.00,548.91 L 469.38,548.92 L 468.49,548.89 L 468.11,548.86 L 467.66,548.74 L 467.49,548.67 L 467.48,548.47 L 467.93,548.06 L 468.20,547.90 L 468.42,547.62 L 468.48,547.49 L 468.27,547.28 L 468.11,547.18 L 467.46,547.02 L 465.93,546.82 L 465.27,546.75 L 464.63,546.60 L 464.43,546.51 L 464.79,546.30 L 464.94,546.24 L 465.45,546.10 L 465.74,546.03 L 466.54,545.86 L 466.97,545.78 L 468.05,545.59 L 470.00,545.26 L 472.06,544.92 L 476.39,544.08 L 477.41,543.88 L 479.19,543.48 L 481.22,542.98 L 482.62,542.58 L 485.46,541.15 L 486.87,540.34 L 489.59,538.22 L 490.92,537.08 L 493.32,534.44 L 496.35,530.07 L 497.00,528.91 L 497.94,526.95 L 498.36,525.98 L 498.93,524.03 L 499.17,523.02 L 499.49,520.60 L 499.56,519.94 L 499.67,518.45 L 499.82,515.90 L 499.95,513.22 L 499.72,508.49 L 499.53,506.21 L 498.63,502.16 L 498.10,500.21 L 496.50,496.72 L 493.27,492.00 L 492.50,491.10 L 491.05,489.58 L 490.34,488.86 L 488.89,487.66 L 488.15,487.10 L 486.55,486.18 L 485.72,485.75 L 483.82,485.07 L 482.82,484.75 L 480.47,484.26 L 479.23,484.03 L 476.29,483.67 L 474.73,483.50 L 471.05,483.23 L 464.52,482.89 L 462.93,482.81 L 460.12,482.70 L 458.78,482.65 L 456.45,482.58 L 455.34,482.55 L 453.45,482.53 L 452.56,482.52 L 451.08,482.54 L 450.39,482.56 L 449.28,482.63 L 448.77,482.67 L 448.00,482.78 L 447.65,482.85 L 447.18,483.01 L 446.77,483.31 L 446.53,483.68 L 445.93,483.75 L 445.63,483.70 L 445.08,483.14 L 444.83,482.81 L 444.55,481.91 L 444.65,480.48 L 444.78,480.14 L 445.22,479.54 L 445.48,479.26 L 446.21,478.77 L 446.62,478.54 L 447.68,478.16 L 448.26,477.98 L 449.70,477.70 L 450.47,477.56 L 452.32,477.36 L 453.31,477.27 L 455.62,477.15 L 456.84,477.10 L 459.67,477.05 L 464.52,477.06 L 466.80,477.08 L 470.75,477.03 L 472.61,477.00 L 475.64,476.85 L 477.04,476.76 L 479.09,476.51 L 479.53,476.44 L 480.22,476.29 L 480.95,476.03 L 481.70,475.62 L 483.47,475.34 L 484.37,475.28 L 486.21,475.62 L 487.12,475.86 L 488.75,476.74 L 490.65,478.59 L 490.94,479.03 L 491.56,479.71 L 491.89,480.02 L 492.64,480.45 L 493.03,480.65 L 493.96,480.87 L 495.61,481.00 L 496.23,481.00 L 497.40,481.19 L 497.97,481.32 L 499.12,481.81 L 499.71,482.09 L 500.93,482.91 L 502.95,484.58 L 506.91,488.15 L 508.42,484.54 L 508.73,483.80 L 509.30,482.55 L 509.59,481.96 L 510.17,481.01 L 510.46,480.56 L 511.11,479.85 L 511.45,479.53 L 512.24,479.04 L 512.66,478.81 L 513.66,478.50 L 514.20,478.36 L 515.48,478.18 L 516.17,478.11 L 517.81,478.04 L 520.74,478.00 L 521.55,478.00 L 522.96,478.02 L 523.63,478.03 L 524.79,478.08 L 525.89,478.14 L 527.49,478.37 L 528.21,478.52 L 529.27,478.97 L 530.56,479.95 L 531.38,480.78 L 532.65,482.15 L 533.24,482.81 L 534.13,483.97 L 535.99,487.47 L 536.20,488.02 L 536.65,488.79 L 536.90,489.13 L 537.58,489.56 L 537.97,489.74 L 539.10,489.91 L 541.52,490.00 L 542.78,490.00 L 545.62,490.45 L 546.30,490.59 L 547.54,490.93 L 549.05,491.52 L 549.72,491.87 L 550.71,492.30 L 551.17,492.47 L 551.94,492.54 L 552.31,492.52 L 553.10,492.23 L 554.57,491.36 L 555.42,490.81 L 556.37,489.64 L 556.67,487.84 L 556.54,487.33 L 556.59,486.54 L 557.09,486.00 L 557.34,486.00 L 557.70,485.78 L 557.88,485.25 L 557.74,484.36 L 558.14,482.82 L 558.30,482.43 L 558.85,481.60 L 560.04,480.19 L 560.46,479.73 L 561.33,479.08 L 561.78,478.79 L 562.91,478.41 L 563.54,478.25 L 565.19,478.09 L 568.54,478.00 L 569.45,478.00 L 571.08,478.08 L 571.86,478.13 L 573.13,478.29 L 573.71,478.38 L 574.50,478.61 L 575.00,479.00 L 575.00,479.27 L 575.39,479.71 L 576.33,480.00 L 576.70,480.00 L 577.27,480.47 L 577.67,481.60 L 577.67,481.94 L 577.37,482.41 L 577.16,482.62 L 576.22,482.85 L 575.64,482.94 L 573.77,482.97 L 573.23,482.97 L 571.94,482.94 L 569.62,482.85 L 561.58,482.50 L 553.59,505.45 L 553.11,506.82 L 552.24,509.32 L 551.82,510.53 L 551.05,512.73 L 550.68,513.79 L 550.00,515.69 L 549.68,516.60 L 549.09,518.23 L 548.53,519.80 L 547.62,522.17 L 547.21,523.24 L 546.56,524.74 L 546.26,525.39 L 545.79,526.15 L 545.58,526.45 L 545.23,526.60 L 545.07,526.61 L 544.79,526.30 L 544.37,525.45 L 544.29,525.24 L 543.99,524.45 L 543.81,524.00 L 543.36,522.74 L 543.11,522.07 L 542.52,520.42 L 542.21,519.55 L 541.50,517.56 L 540.78,515.51 L 539.08,510.65 L 536.34,502.75 L 529.54,483.00 L 521.26,483.00 L 512.97,483.00 L 513.24,513.75 L 513.50,544.50 L 518.40,544.81 L 519.21,544.86 L 520.59,544.86 L 521.24,544.85 L 522.28,544.71 L 522.76,544.63 L 523.47,544.36 L 524.14,543.81 L 524.20,543.72 L 524.31,543.15 L 524.36,542.80 L 524.47,541.76 L 524.52,541.19 L 524.62,539.74 L 524.66,538.96 L 524.75,537.16 L 524.79,536.21 L 524.86,534.11 L 524.90,533.02 L 524.95,530.67 L 525.05,523.00 L 525.06,521.44 L 525.09,518.61 L 525.10,517.25 L 525.15,514.82 L 525.17,513.65 L 525.24,511.64 L 525.27,510.68 L 525.35,509.09 L 525.39,508.34 L 525.49,507.18 L 525.54,506.66 L 525.65,505.94 L 525.71,505.64 L 525.83,505.37 L 526.04,505.50 L 526.10,505.64 L 526.35,506.26 L 526.49,506.62 L 526.88,507.66 L 527.09,508.22 L 527.60,509.62 L 527.87,510.35 L 528.48,512.05 L 529.12,513.82 L 530.64,518.05 L 533.10,525.00 L 533.94,527.41 L 535.56,531.89 L 536.35,534.05 L 537.74,537.73 L 538.06,538.58 L 538.64,540.05 L 538.91,540.75 L 539.38,541.88 L 539.59,542.40 L 539.92,543.14 L 540.25,543.75 L 540.38,543.92 L 540.94,544.24 L 541.25,544.38 L 542.08,544.63 L 545.10,545.00 L 545.83,545.00 L 547.00,544.89 L 547.55,544.81 L 548.42,544.51 L 548.83,544.34 L 549.49,543.82 L 550.35,542.75 L 550.44,542.60 L 550.76,541.92 L 550.93,541.53 L 551.38,540.43 L 551.63,539.83 L 552.20,538.36 L 552.50,537.58 L 553.18,535.78 L 553.87,533.92 L 555.47,529.48 L 558.02,522.19 L 558.55,520.66 L 559.51,517.92 L 559.98,516.60 L 560.83,514.26 L 561.24,513.14 L 561.98,511.21 L 562.33,510.30 L 562.96,508.78 L 563.25,508.07 L 563.77,506.97 L 564.01,506.46 L 564.41,505.76 L 564.59,505.46 L 564.88,505.17 L 565.18,505.19 L 565.24,505.28 L 565.35,505.84 L 565.40,506.18 L 565.50,507.20 L 565.55,507.76 L 565.63,509.18 L 565.67,509.93 L 565.74,511.70 L 565.77,512.62 L 565.81,514.67 L 565.84,515.73 L 565.86,518.02 L 565.85,525.50 L 565.66,544.49 L 569.34,545.09 L 570.41,545.26 L 572.03,545.68 L 572.74,545.89 L 573.55,546.31 L 573.83,546.50 L 573.65,546.80 L 573.54,546.86 L 573.10,546.95 L 572.11,547.00 L 571.49,547.00 L 570.71,547.29 L 570.50,548.00 L 570.69,548.31 L 570.64,548.70 L 570.51,548.85 L 569.63,548.93 L 569.34,548.93 L 568.57,548.88 L 568.14,548.84 L 567.06,548.70 L 566.48,548.63 L 565.07,548.42 L 562.54,548.01 L 560.72,547.71 L 557.23,547.55 L 556.41,547.54 L 554.92,547.63 L 553.04,547.94 L 551.25,548.39 L 547.57,549.01 L 545.73,549.27 L 542.24,549.49 L 540.56,549.55 L 537.64,549.36 L 536.97,549.28 L 535.80,549.05 L 535.25,548.93 M 443.11,536.89 L 443.00,536.64 L 442.79,535.72 L 442.69,535.20 L 442.51,533.82 L 442.42,533.08 L 442.26,531.30 L 442.18,530.37 L 442.05,528.27 L 441.93,526.10 L 441.76,521.12 L 441.68,518.57 L 441.62,513.25 L 441.60,510.60 L 441.65,505.54 L 441.67,504.32 L 441.74,502.02 L 441.77,500.91 L 441.86,498.88 L 441.91,497.91 L 442.03,496.22 L 442.10,495.42 L 442.25,494.15 L 442.33,493.57 L 442.51,492.78 L 442.82,492.23 L 443.15,492.12 L 443.69,491.17 L 444.12,489.17 L 444.13,488.74 L 444.20,488.15 L 444.23,487.90 L 444.32,487.66 L 444.37,487.58 L 444.49,487.69 L 444.69,488.25 L 444.82,488.73 L 445.31,489.49 L 446.17,490.00 L 446.25,490.00 L 446.40,490.52 L 446.47,490.85 L 446.59,491.98 L 446.64,492.60 L 446.73,494.25 L 446.77,495.13 L 446.83,497.20 L 446.86,498.29 L 446.89,500.71 L 446.91,501.96 L 446.92,504.64 L 446.92,507.36 L 446.86,513.23 L 446.81,516.17 L 446.67,521.93 L 446.63,523.33 L 446.53,525.99 L 446.48,527.29 L 446.37,529.69 L 446.31,530.85 L 446.18,532.89 L 446.11,533.86 L 445.96,535.47 L 445.89,536.21 L 445.73,537.29 L 445.48,538.22 L 445.25,538.59 L 444.90,539.02 L 444.72,539.18 L 444.40,539.12 L 444.24,539.03 L 443.85,538.44 L 443.65,538.07 M 459.00,513.48 L 459.00,492.76 L 468.00,493.19 L 469.21,493.24 L 471.31,493.40 L 472.32,493.48 L 474.06,493.72 L 474.89,493.85 L 476.35,494.19 L 477.04,494.38 L 478.28,494.86 L 479.46,495.38 L 481.46,496.96 L 484.44,500.39 L 484.88,500.98 L 485.51,502.18 L 485.78,502.83 L 486.13,504.50 L 486.21,504.96 L 486.31,506.07 L 486.36,506.65 L 486.43,508.03 L 486.45,508.76 L 486.48,510.48 L 486.50,513.50 L 486.50,514.61 L 486.48,516.52 L 486.47,517.43 L 486.43,518.97 L 486.40,519.70 L 486.31,520.93 L 486.27,521.52 L 486.13,522.50 L 485.99,523.44 L 485.51,524.82 L 484.44,526.61 L 483.91,527.33 L 482.90,528.55 L 482.40,529.12 L 481.42,530.10 L 480.42,531.01 L 478.19,532.23 L 477.59,532.49 L 476.25,532.90 L 475.55,533.08 L 473.96,533.36 L 473.13,533.49 L 471.22,533.66 L 467.93,533.85 L 459.00,534.20 L 459.00,513.48 M 396.50,411.00 L 397.00,410.45 L 397.85,409.59 L 398.56,409.00 L 398.63,409.00 L 398.59,409.59 L 398.29,411.00 L 398.15,411.55 L 397.47,412.41 L 396.23,413.00 L 395.90,413.00 L 395.51,412.92 L 395.36,412.87 L 395.31,412.63 L 395.33,412.49 L 395.63,412.02 L 395.83,411.76 Z" fill="rgba(2,3,5,1)"/>
</g>
</svg>